STARTFONT 2.1
COMMENT
COMMENT Converted from OpenType font "Q:\font stuff\winfont\neuropolitical.ttf" by "otf2bdf 3.0".
COMMENT
FONT -FreeType-Neuropolitical Rg-Medium-R-Normal--22-220-72-72-P-145-ISO10646-1
SIZE 22 72 72
FONTBOUNDINGBOX 34 26 -3 -5
STARTPROPERTIES 19
FOUNDRY "FreeType"
FAMILY_NAME "Neuropolitical Rg"
WEIGHT_NAME "Medium"
SLANT "R"
SETWIDTH_NAME "Normal"
ADD_STYLE_NAME ""
PIXEL_SIZE 16
POINT_SIZE 220
RESOLUTION_X 72
RESOLUTION_Y 72
SPACING "P"
AVERAGE_WIDTH 145
CHARSET_REGISTRY "ISO10646"
CHARSET_ENCODING "1"
FONT_ASCENT 21
FONT_DESCENT 4
COPYRIGHT "(c) 1999-2011 Typodermic Fonts. www.typodermic.com/license.html - Design: Ray Larabie Languages & kerning: Chikako Larabie"
_OTF_FONTFILE "Q:\font stuff\winfont\neuropolitical.ttf"
_OTF_PSNAME "NeuropoliticalRg-Regular"
ENDPROPERTIES
CHARS 385
STARTCHAR 0017
ENCODING 23
SWIDTH 409 0
DWIDTH 9 0
BBX 0 0 0 0
BITMAP
ENDCHAR
STARTCHAR 0020
ENCODING 32
SWIDTH 409 0
DWIDTH 9 0
BBX 0 0 0 0
BITMAP
ENDCHAR
STARTCHAR 0021
ENCODING 33
SWIDTH 272 0
DWIDTH 6 0
BBX 3 15 2 0
BITMAP
E0
E0
E0
E0
E0
E0
E0
E0
E0
E0
00
00
E0
E0
E0
ENDCHAR
STARTCHAR 0022
ENCODING 34
SWIDTH 409 0
DWIDTH 9 0
BBX 7 6 1 10
BITMAP
EE
EE
EE
EE
EE
EE
ENDCHAR
STARTCHAR 0023
ENCODING 35
SWIDTH 636 0
DWIDTH 14 0
BBX 13 15 1 0
BITMAP
1C60
1860
1860
7FF8
FFF8
FFF8
18C0
38C0
30C0
FFF0
FFF0
FFF0
3180
3180
7180
ENDCHAR
STARTCHAR 0024
ENCODING 36
SWIDTH 818 0
DWIDTH 18 0
BBX 16 18 1 -2
BITMAP
0180
3F80
7F80
FF80
E180
E180
E180
FFFC
FFFE
7FFF
0187
0187
0187
FFFF
FFFE
FFFC
0180
0180
ENDCHAR
STARTCHAR 0025
ENCODING 37
SWIDTH 1045 0
DWIDTH 23 0
BBX 21 15 1 0
BITMAP
7F0380
FF8700
C18600
C18E00
C19C00
FF9800
7F3000
007000
0067F0
00CFF8
01CC18
038C18
030C18
070FF8
0E07F0
ENDCHAR
STARTCHAR 0026
ENCODING 38
SWIDTH 909 0
DWIDTH 20 0
BBX 19 15 1 0
BITMAP
3FF800
7FFC00
7FFC00
701C00
701C00
701C00
3DF800
7F8000
F38380
E0E380
E07380
E01F00
FFFF00
7FFF80
3FF9E0
ENDCHAR
STARTCHAR 0027
ENCODING 39
SWIDTH 227 0
DWIDTH 5 0
BBX 3 6 1 10
BITMAP
E0
E0
E0
E0
E0
E0
ENDCHAR
STARTCHAR 0028
ENCODING 40
SWIDTH 363 0
DWIDTH 8 0
BBX 5 24 2 -5
BITMAP
38
78
E0
C0
C0
C0
C0
C0
C0
C0
C0
C0
C0
C0
C0
C0
C0
C0
C0
C0
C0
E0
78
38
ENDCHAR
STARTCHAR 0029
ENCODING 41
SWIDTH 363 0
DWIDTH 8 0
BBX 5 24 0 -5
BITMAP
E0
F0
38
18
18
18
18
18
18
18
18
18
18
18
18
18
18
18
18
18
18
38
F0
E0
ENDCHAR
STARTCHAR 002A
ENCODING 42
SWIDTH 545 0
DWIDTH 12 0
BBX 11 11 1 6
BITMAP
0C00
0C00
0C00
8C40
FFE0
7F80
0E00
1E00
3300
7180
2100
ENDCHAR
STARTCHAR 002B
ENCODING 43
SWIDTH 590 0
DWIDTH 13 0
BBX 10 10 1 3
BITMAP
0C00
0C00
0C00
0C00
FFC0
FFC0
FFC0
0C00
0C00
0C00
ENDCHAR
STARTCHAR 002C
ENCODING 44
SWIDTH 227 0
DWIDTH 5 0
BBX 4 6 1 -2
BITMAP
F0
E0
E0
E0
E0
C0
ENDCHAR
STARTCHAR 002D
ENCODING 45
SWIDTH 409 0
DWIDTH 9 0
BBX 7 3 1 6
BITMAP
FE
FE
FE
ENDCHAR
STARTCHAR 002E
ENCODING 46
SWIDTH 227 0
DWIDTH 5 0
BBX 3 3 1 0
BITMAP
E0
E0
E0
ENDCHAR
STARTCHAR 002F
ENCODING 47
SWIDTH 500 0
DWIDTH 11 0
BBX 11 18 0 -2
BITMAP
00E0
00C0
01C0
0180
0380
0380
0700
0700
0600
0E00
0C00
1C00
1800
3800
3000
7000
6000
E000
ENDCHAR
STARTCHAR 0030
ENCODING 48
SWIDTH 863 0
DWIDTH 19 0
BBX 17 15 1 0
BITMAP
3FFE00
7FFF00
FFFF80
E00780
E00380
E00380
E00380
E00380
E00380
E00380
E00380
E00780
FFFF80
7FFF00
3FFE00
ENDCHAR
STARTCHAR 0031
ENCODING 49
SWIDTH 227 0
DWIDTH 5 0
BBX 3 15 1 0
BITMAP
E0
E0
E0
E0
E0
E0
E0
E0
E0
E0
E0
E0
E0
E0
E0
ENDCHAR
STARTCHAR 0032
ENCODING 50
SWIDTH 909 0
DWIDTH 20 0
BBX 18 15 1 0
BITMAP
00FF00
00FF80
00FFC0
0001C0
0001C0
0001C0
3FFFC0
7FFFC0
FFFF80
E00000
E00000
E00000
FFFFC0
FFFFC0
FFFFC0
ENDCHAR
STARTCHAR 0033
ENCODING 51
SWIDTH 909 0
DWIDTH 20 0
BBX 18 15 1 0
BITMAP
00FF00
00FFC0
00FFC0
0001C0
0001C0
0001C0
7FFFC0
7FFF80
7FFFC0
0001C0
0001C0
0001C0
FFFFC0
FFFFC0
FFFF80
ENDCHAR
STARTCHAR 0034
ENCODING 52
SWIDTH 954 0
DWIDTH 21 0
BBX 18 15 1 0
BITMAP
E001C0
E001C0
E001C0
E001C0
E001C0
E001C0
E001C0
E001C0
FFFFC0
FFFFC0
FFFFC0
0001C0
0001C0
0001C0
0001C0
ENDCHAR
STARTCHAR 0035
ENCODING 53
SWIDTH 954 0
DWIDTH 21 0
BBX 19 15 1 0
BITMAP
FFE000
FFE000
FFE000
E00000
E00000
E00000
FFFF80
FFFFC0
FFFFE0
0000E0
0000E0
0000E0
FFFFE0
FFFFC0
FFFF80
ENDCHAR
STARTCHAR 0036
ENCODING 54
SWIDTH 909 0
DWIDTH 20 0
BBX 18 15 1 0
BITMAP
3FC000
7FC000
FFC000
E00000
E00000
E00000
FFFF00
FFFF80
FFFFC0
E001C0
E001C0
E001C0
FFFFC0
7FFF80
3FFF00
ENDCHAR
STARTCHAR 0037
ENCODING 55
SWIDTH 909 0
DWIDTH 20 0
BBX 18 15 1 0
BITMAP
FFFFC0
FFFFC0
FFFFC0
000780
000F00
001E00
001E00
003C00
007800
00F000
01E000
03E000
03C000
078000
0F0000
ENDCHAR
STARTCHAR 0038
ENCODING 56
SWIDTH 909 0
DWIDTH 20 0
BBX 18 15 1 0
BITMAP
3FFF00
FFFF80
FFFFC0
F003C0
E003C0
F003C0
FFFF80
7FFF80
FFFFC0
E001C0
E001C0
E001C0
FFFFC0
FFFFC0
7FFF00
ENDCHAR
STARTCHAR 0039
ENCODING 57
SWIDTH 909 0
DWIDTH 20 0
BBX 18 15 1 0
BITMAP
3FFF00
7FFF80
FFFFC0
E001C0
E001C0
E001C0
E001C0
FFFFC0
7FFFC0
3FFFC0
0001C0
0001C0
00FFC0
00FF80
00FF00
ENDCHAR
STARTCHAR 003A
ENCODING 58
SWIDTH 227 0
DWIDTH 5 0
BBX 3 11 1 0
BITMAP
E0
E0
E0
00
00
00
00
00
E0
E0
E0
ENDCHAR
STARTCHAR 003B
ENCODING 59
SWIDTH 227 0
DWIDTH 5 0
BBX 3 13 1 -2
BITMAP
E0
E0
E0
00
00
00
00
00
E0
E0
C0
C0
C0
ENDCHAR
STARTCHAR 003C
ENCODING 60
SWIDTH 590 0
DWIDTH 13 0
BBX 11 13 1 1
BITMAP
0020
00E0
03E0
0F80
3E00
7800
E000
7800
3E00
0F80
03E0
00E0
0020
ENDCHAR
STARTCHAR 003D
ENCODING 61
SWIDTH 590 0
DWIDTH 13 0
BBX 11 8 1 4
BITMAP
FFE0
FFE0
FFE0
0000
0000
FFE0
FFE0
FFE0
ENDCHAR
STARTCHAR 003E
ENCODING 62
SWIDTH 590 0
DWIDTH 13 0
BBX 11 13 1 1
BITMAP
8000
E000
F800
3E00
0F80
03C0
00E0
03C0
0F80
3E00
F800
E000
8000
ENDCHAR
STARTCHAR 003F
ENCODING 63
SWIDTH 590 0
DWIDTH 13 0
BBX 11 15 1 0
BITMAP
1F80
1FC0
1FE0
00E0
00E0
00E0
7FE0
FFE0
FFC0
E000
0000
0000
E000
E000
E000
ENDCHAR
STARTCHAR 0040
ENCODING 64
SWIDTH 727 0
DWIDTH 16 0
BBX 13 18 2 -4
BITMAP
7FF0
FFF8
FFF8
C018
C7F8
CFF8
CFF8
CE18
CE18
CE18
CFF8
CFF8
C7F0
C000
C000
FE00
FE00
7E00
ENDCHAR
STARTCHAR 0041
ENCODING 65
SWIDTH 1045 0
DWIDTH 23 0
BBX 22 15 0 0
BITMAP
003800
007C00
00FE00
00EE00
01CF00
03C780
038780
0783C0
0F01C0
0FFFE0
1FFFF0
3FFFF0
3C0078
78003C
F0003C
ENDCHAR
STARTCHAR 0042
ENCODING 66
SWIDTH 909 0
DWIDTH 20 0
BBX 18 15 1 0
BITMAP
FFFF00
FFFF80
FFFFC0
E003C0
E003C0
E003C0
FFFF80
FFFF80
FFFFC0
E001C0
E001C0
E001C0
FFFFC0
FFFFC0
FFFF00
ENDCHAR
STARTCHAR 0043
ENCODING 67
SWIDTH 818 0
DWIDTH 18 0
BBX 16 15 1 0
BITMAP
3FFF
7FFF
FFFF
F000
E000
E000
E000
E000
E000
E000
E000
F000
FFFF
7FFF
3FFF
ENDCHAR
STARTCHAR 0044
ENCODING 68
SWIDTH 909 0
DWIDTH 20 0
BBX 18 15 1 0
BITMAP
FFFF00
FFFF80
FFFFC0
E003C0
E001C0
E001C0
E001C0
E001C0
E001C0
E001C0
E001C0
E003C0
FFFFC0
FFFF80
FFFF00
ENDCHAR
STARTCHAR 0045
ENCODING 69
SWIDTH 818 0
DWIDTH 18 0
BBX 16 15 1 0
BITMAP
3F80
7F80
FF80
E000
E000
E000
FFFF
FFFF
FFFF
E000
E000
E000
FFFF
7FFF
3FFF
ENDCHAR
STARTCHAR 0046
ENCODING 70
SWIDTH 818 0
DWIDTH 18 0
BBX 16 15 1 0
BITMAP
3F80
7F80
FF80
F000
E000
E000
FFFF
FFFF
FFFF
E000
E000
E000
E000
E000
E000
ENDCHAR
STARTCHAR 0047
ENCODING 71
SWIDTH 863 0
DWIDTH 19 0
BBX 17 15 1 0
BITMAP
3F8000
7F8000
FF8000
F00000
E00000
E00000
E00380
E00380
E00380
E00380
E00380
E00780
FFFF80
7FFF00
3FFE00
ENDCHAR
STARTCHAR 0048
ENCODING 72
SWIDTH 909 0
DWIDTH 20 0
BBX 18 15 1 0
BITMAP
E001C0
E001C0
E001C0
E001C0
E001C0
E001C0
FFFFC0
FFFFC0
FFFFC0
E001C0
E001C0
E001C0
E001C0
E001C0
E001C0
ENDCHAR
STARTCHAR 0049
ENCODING 73
SWIDTH 227 0
DWIDTH 5 0
BBX 3 15 1 0
BITMAP
E0
E0
E0
E0
E0
E0
E0
E0
E0
E0
E0
E0
E0
E0
E0
ENDCHAR
STARTCHAR 004A
ENCODING 74
SWIDTH 500 0
DWIDTH 11 0
BBX 9 15 1 0
BITMAP
0380
0380
0380
0380
0380
0380
0380
0380
0380
0380
0380
0780
FF80
FF00
FE00
ENDCHAR
STARTCHAR 004B
ENCODING 75
SWIDTH 818 0
DWIDTH 18 0
BBX 15 15 1 0
BITMAP
E01E
E07C
E0F8
E1F0
E3C0
E780
EF00
FE00
EF80
E7C0
E3E0
E1F0
E078
E03C
E01E
ENDCHAR
STARTCHAR 004C
ENCODING 76
SWIDTH 772 0
DWIDTH 17 0
BBX 15 15 1 0
BITMAP
E000
E000
E000
E000
E000
E000
E000
E000
E000
E000
E000
F000
FFFE
7FFE
3FFE
ENDCHAR
STARTCHAR 004D
ENCODING 77
SWIDTH 1181 0
DWIDTH 26 0
BBX 24 15 1 0
BITMAP
E00007
F0000F
F8001F
FC003F
FC003F
FE007F
EF00F7
E781E7
E3C3C7
E3C3C7
E1E787
E0FF07
E07E07
E03C07
E01807
ENDCHAR
STARTCHAR 004E
ENCODING 78
SWIDTH 909 0
DWIDTH 20 0
BBX 18 15 1 0
BITMAP
E001C0
F801C0
FC01C0
FE01C0
FF01C0
EF81C0
E7C1C0
E3E1C0
E0F9C0
E07DC0
E03FC0
E01FC0
E00FC0
E007C0
E001C0
ENDCHAR
STARTCHAR 004F
ENCODING 79
SWIDTH 863 0
DWIDTH 19 0
BBX 17 15 1 0
BITMAP
3FFE00
7FFF00
FFFF80
F00780
E00380
E00380
E00380
E00380
E00380
E00380
E00380
E00780
FFFF80
7FFF00
3FFE00
ENDCHAR
STARTCHAR 0050
ENCODING 80
SWIDTH 909 0
DWIDTH 20 0
BBX 18 15 1 0
BITMAP
FFFF00
FFFF80
FFFFC0
E001C0
E001C0
E001C0
E001C0
E001C0
FFFFC0
FFFF80
FFFF00
E00000
E00000
E00000
E00000
ENDCHAR
STARTCHAR 0051
ENCODING 81
SWIDTH 863 0
DWIDTH 19 0
BBX 18 17 1 -2
BITMAP
3FFE00
7FFF00
FFFF80
F00780
E00380
E00380
E00380
E00380
E00380
E00380
E00380
E00780
FFFF80
7FFF00
3FFF00
000F80
0003C0
ENDCHAR
STARTCHAR 0052
ENCODING 82
SWIDTH 909 0
DWIDTH 20 0
BBX 18 15 1 0
BITMAP
FFFF00
FFFF80
FFFFC0
E001C0
E001C0
E001C0
E001C0
FFFFC0
FFFF80
FFFF00
E7C000
E3F000
E0FC00
E03E00
E01F80
ENDCHAR
STARTCHAR 0053
ENCODING 83
SWIDTH 818 0
DWIDTH 18 0
BBX 16 15 1 0
BITMAP
3F80
7F80
FF80
E000
E000
E000
FFFC
FFFE
3FFF
0007
0007
0007
FFFF
FFFE
FFFC
ENDCHAR
STARTCHAR 0054
ENCODING 84
SWIDTH 772 0
DWIDTH 17 0
BBX 15 15 1 0
BITMAP
FFFE
FFFE
FFFE
0380
0380
0380
0380
0380
0380
0380
0380
0380
0380
0380
0380
ENDCHAR
STARTCHAR 0055
ENCODING 85
SWIDTH 863 0
DWIDTH 19 0
BBX 17 15 1 0
BITMAP
E00380
E00380
E00380
E00380
E00380
E00380
E00380
E00380
E00380
E00380
E00380
F00780
FFFF80
7FFF00
3FFE00
ENDCHAR
STARTCHAR 0056
ENCODING 86
SWIDTH 1045 0
DWIDTH 23 0
BBX 22 15 0 0
BITMAP
F8003C
780078
3C0078
3C00F0
1E00F0
0F01E0
0F03C0
0783C0
03C780
03CF00
01EF00
01FE00
00FC00
007C00
003800
ENDCHAR
STARTCHAR 0057
ENCODING 87
SWIDTH 1363 0
DWIDTH 30 0
BBX 29 15 0 0
BITMAP
F0070078
78078078
780F8070
380FC0F0
3C1FC0E0
1C1DE1E0
1E3CE1C0
1E38F1C0
0E7873C0
0F707B80
07F03F80
07E03F00
03E01F00
03C01E00
01800E00
ENDCHAR
STARTCHAR 0058
ENCODING 88
SWIDTH 1000 0
DWIDTH 22 0
BBX 21 15 1 0
BITMAP
F800F0
7C01E0
3E07C0
0F0F80
079F00
03FE00
01F800
00F800
03FC00
07FE00
0F9F00
1F0F80
3E07C0
7801E0
F000F8
ENDCHAR
STARTCHAR 0059
ENCODING 89
SWIDTH 954 0
DWIDTH 21 0
BBX 19 15 1 0
BITMAP
F001E0
7803C0
3C0780
1F0F00
0F9E00
07FC00
03F800
00F000
00E000
00E000
00E000
00E000
00E000
00E000
00E000
ENDCHAR
STARTCHAR 005A
ENCODING 90
SWIDTH 863 0
DWIDTH 19 0
BBX 17 15 1 0
BITMAP
FFFF00
FFFF00
FFFF00
001E00
007C00
00F800
01F000
03C000
078000
0F0000
3E0000
7C0000
FFFF80
FFFF80
FFFF80
ENDCHAR
STARTCHAR 005B
ENCODING 91
SWIDTH 363 0
DWIDTH 8 0
BBX 5 24 2 -5
BITMAP
F8
F8
C0
C0
C0
C0
C0
C0
C0
C0
C0
C0
C0
C0
C0
C0
C0
C0
C0
C0
C0
C0
F8
F8
ENDCHAR
STARTCHAR 005C
ENCODING 92
SWIDTH 500 0
DWIDTH 11 0
BBX 11 18 0 -2
BITMAP
E000
6000
7000
3000
3800
1800
1C00
0C00
0E00
0600
0700
0700
0380
0380
0180
01C0
00C0
00E0
ENDCHAR
STARTCHAR 005D
ENCODING 93
SWIDTH 363 0
DWIDTH 8 0
BBX 5 24 0 -5
BITMAP
F8
F8
18
18
18
18
18
18
18
18
18
18
18
18
18
18
18
18
18
18
18
18
F8
F8
ENDCHAR
STARTCHAR 005E
ENCODING 94
SWIDTH 636 0
DWIDTH 14 0
BBX 12 10 1 5
BITMAP
0600
0F00
0F00
1F80
3980
39C0
70C0
70E0
E060
C070
ENDCHAR
STARTCHAR 005F
ENCODING 95
SWIDTH 681 0
DWIDTH 15 0
BBX 15 3 0 -3
BITMAP
FFFE
FFFE
FFFE
ENDCHAR
STARTCHAR 0060
ENCODING 96
SWIDTH 409 0
DWIDTH 9 0
BBX 5 5 2 13
BITMAP
E0
F0
70
38
38
ENDCHAR
STARTCHAR 0061
ENCODING 97
SWIDTH 818 0
DWIDTH 18 0
BBX 16 12 1 0
BITMAP
00FC
00FE
00FF
0007
7FFF
FFFF
FFFF
E007
E007
FFFF
FFFE
7FFC
ENDCHAR
STARTCHAR 0062
ENCODING 98
SWIDTH 818 0
DWIDTH 18 0
BBX 16 16 1 0
BITMAP
E000
E000
E000
E000
FFFC
FFFE
FFFF
E007
E007
E007
E007
E007
F00F
FFFF
7FFE
3FFC
ENDCHAR
STARTCHAR 0063
ENCODING 99
SWIDTH 772 0
DWIDTH 17 0
BBX 14 12 1 0
BITMAP
3FFC
7FFC
FFFC
E000
E000
E000
E000
E000
F000
FFFC
7FFC
3FFC
ENDCHAR
STARTCHAR 0064
ENCODING 100
SWIDTH 818 0
DWIDTH 18 0
BBX 16 16 1 0
BITMAP
0007
0007
0007
0007
3FFF
7FFF
FFFF
F007
E007
E007
E007
E007
F007
FFFF
7FFE
3FFC
ENDCHAR
STARTCHAR 0065
ENCODING 101
SWIDTH 772 0
DWIDTH 17 0
BBX 15 12 1 0
BITMAP
3FF8
7FFE
FFFE
E00E
E00E
FFFE
FFFE
FFFE
E000
FF80
7F80
3F80
ENDCHAR
STARTCHAR 0066
ENCODING 102
SWIDTH 454 0
DWIDTH 10 0
BBX 7 16 1 0
BITMAP
7E
FE
FE
E0
FE
FE
FE
E0
E0
E0
E0
E0
E0
E0
E0
E0
ENDCHAR
STARTCHAR 0067
ENCODING 103
SWIDTH 818 0
DWIDTH 18 0
BBX 16 16 1 -4
BITMAP
3FFC
7FFE
FFFF
E007
E007
E007
E007
E007
FFFF
7FFF
3FFF
0007
0007
01FF
01FF
01FC
ENDCHAR
STARTCHAR 0068
ENCODING 104
SWIDTH 818 0
DWIDTH 18 0
BBX 16 16 1 0
BITMAP
E000
E000
E000
E000
FFFC
FFFE
FFFF
E00F
E007
E007
E007
E007
E007
E007
E007
E007
ENDCHAR
STARTCHAR 0069
ENCODING 105
SWIDTH 227 0
DWIDTH 5 0
BBX 3 16 1 0
BITMAP
E0
E0
E0
00
E0
E0
E0
E0
E0
E0
E0
E0
E0
E0
E0
E0
ENDCHAR
STARTCHAR 006A
ENCODING 106
SWIDTH 272 0
DWIDTH 6 0
BBX 6 20 -1 -4
BITMAP
1C
1C
1C
00
00
1C
1C
1C
1C
1C
1C
1C
1C
1C
1C
1C
1C
FC
F8
F0
ENDCHAR
STARTCHAR 006B
ENCODING 107
SWIDTH 727 0
DWIDTH 16 0
BBX 14 16 1 0
BITMAP
E000
E000
E000
E000
E078
E0F0
E1E0
E7C0
EF00
FE00
FF00
EF80
E3C0
E1E0
E0F8
E07C
ENDCHAR
STARTCHAR 006C
ENCODING 108
SWIDTH 227 0
DWIDTH 5 0
BBX 3 16 1 0
BITMAP
E0
E0
E0
E0
E0
E0
E0
E0
E0
E0
E0
E0
E0
E0
E0
E0
ENDCHAR
STARTCHAR 006D
ENCODING 109
SWIDTH 1090 0
DWIDTH 24 0
BBX 22 12 1 0
BITMAP
3FC7F0
7FEFF8
FFFFFC
E0381C
E0381C
E0381C
E0381C
E0381C
E0381C
E0381C
E0381C
E0381C
ENDCHAR
STARTCHAR 006E
ENCODING 110
SWIDTH 772 0
DWIDTH 17 0
BBX 15 12 1 0
BITMAP
3FF8
7FFC
FFFE
F01E
E00E
E00E
E00E
E00E
E00E
E00E
E00E
E00E
ENDCHAR
STARTCHAR 006F
ENCODING 111
SWIDTH 772 0
DWIDTH 17 0
BBX 15 12 1 0
BITMAP
3FF8
7FFC
FFFE
F01E
E00E
E00E
E00E
E00E
F01E
FFFE
7FFC
3FF8
ENDCHAR
STARTCHAR 0070
ENCODING 112
SWIDTH 818 0
DWIDTH 18 0
BBX 16 16 1 -4
BITMAP
3FFC
7FFE
FFFF
F00F
E007
E007
E007
E007
E007
FFFF
FFFE
FFFC
E000
E000
E000
E000
ENDCHAR
STARTCHAR 0071
ENCODING 113
SWIDTH 818 0
DWIDTH 18 0
BBX 16 16 1 -4
BITMAP
3FFC
7FFE
FFFF
F007
E007
E007
E007
E007
E007
FFFF
7FFF
3FFF
0007
0007
0007
0007
ENDCHAR
STARTCHAR 0072
ENCODING 114
SWIDTH 454 0
DWIDTH 10 0
BBX 7 12 1 0
BITMAP
3E
7E
FE
E0
E0
E0
E0
E0
E0
E0
E0
E0
ENDCHAR
STARTCHAR 0073
ENCODING 115
SWIDTH 727 0
DWIDTH 16 0
BBX 14 12 1 0
BITMAP
7F00
FF00
FF00
E000
FFF8
FFFC
7FFC
001C
001C
FFFC
FFFC
FFF8
ENDCHAR
STARTCHAR 0074
ENCODING 116
SWIDTH 409 0
DWIDTH 9 0
BBX 9 15 0 0
BITMAP
3800
3800
3800
FF80
FF80
FF80
3800
3800
3800
3800
3800
3800
3800
3800
3800
ENDCHAR
STARTCHAR 0075
ENCODING 117
SWIDTH 772 0
DWIDTH 17 0
BBX 15 12 1 0
BITMAP
E00E
E00E
E00E
E00E
E00E
E00E
E00E
E00E
F00E
FFFE
7FFC
3FF8
ENDCHAR
STARTCHAR 0076
ENCODING 118
SWIDTH 954 0
DWIDTH 21 0
BBX 19 12 1 0
BITMAP
E001E0
F001C0
7803C0
3C0780
3C0F00
1E0E00
0F1E00
073C00
07B800
03F800
01F000
00E000
ENDCHAR
STARTCHAR 0077
ENCODING 119
SWIDTH 1090 0
DWIDTH 24 0
BBX 24 12 0 0
BITMAP
F01C07
703C0F
783E0E
387E1E
387F1C
1CE73C
1CE7B8
1FC3F8
0FC3F0
0F81F0
0781E0
0700E0
ENDCHAR
STARTCHAR 0078
ENCODING 120
SWIDTH 772 0
DWIDTH 17 0
BBX 15 12 1 0
BITMAP
F01E
783C
3C78
1EF0
0FE0
07C0
07C0
0FE0
1CF0
3C78
783C
F01E
ENDCHAR
STARTCHAR 0079
ENCODING 121
SWIDTH 818 0
DWIDTH 18 0
BBX 16 16 1 -4
BITMAP
E007
E007
E007
E007
E007
E007
E007
E007
FFFF
7FFF
3FFF
0007
0007
01FF
01FF
01FC
ENDCHAR
STARTCHAR 007A
ENCODING 122
SWIDTH 681 0
DWIDTH 15 0
BBX 14 12 1 0
BITMAP
FFF8
FFF8
FFF0
00E0
01C0
0380
0F00
1C00
3800
7FFC
FFFC
FFFC
ENDCHAR
STARTCHAR 007B
ENCODING 123
SWIDTH 318 0
DWIDTH 7 0
BBX 6 24 1 -5
BITMAP
1C
3C
30
30
30
30
30
30
30
30
30
F0
E0
F0
30
30
30
30
30
30
30
30
3C
3C
ENDCHAR
STARTCHAR 007C
ENCODING 124
SWIDTH 272 0
DWIDTH 6 0
BBX 2 24 2 -5
BITMAP
C0
C0
C0
C0
C0
C0
C0
C0
C0
C0
C0
C0
C0
C0
C0
C0
C0
C0
C0
C0
C0
C0
C0
C0
ENDCHAR
STARTCHAR 007D
ENCODING 125
SWIDTH 318 0
DWIDTH 7 0
BBX 6 24 1 -5
BITMAP
E0
F0
30
30
30
30
30
30
30
30
30
3C
1C
3C
30
30
30
30
30
30
30
30
F0
E0
ENDCHAR
STARTCHAR 007E
ENCODING 126
SWIDTH 590 0
DWIDTH 13 0
BBX 11 4 1 6
BITMAP
7820
FFE0
FFE0
8380
ENDCHAR
STARTCHAR 00A0
ENCODING 160
SWIDTH 409 0
DWIDTH 9 0
BBX 0 0 0 0
BITMAP
ENDCHAR
STARTCHAR 00A1
ENCODING 161
SWIDTH 272 0
DWIDTH 6 0
BBX 3 15 1 0
BITMAP
E0
E0
E0
00
00
E0
E0
E0
E0
E0
E0
E0
E0
E0
E0
ENDCHAR
STARTCHAR 00A2
ENCODING 162
SWIDTH 727 0
DWIDTH 16 0
BBX 14 15 1 0
BITMAP
0180
0180
3FFC
7FFC
FFFC
E180
E180
E180
E180
E180
E180
FFFC
7FFC
3FFC
0180
ENDCHAR
STARTCHAR 00A3
ENCODING 163
SWIDTH 863 0
DWIDTH 19 0
BBX 17 15 1 0
BITMAP
0FE000
1FE000
3FE000
380000
380000
380000
3FFF80
3FFF80
3FFF80
380000
380000
380000
FFFF80
FFFF80
FFFF80
ENDCHAR
STARTCHAR 00A4
ENCODING 164
SWIDTH 727 0
DWIDTH 16 0
BBX 14 15 1 0
BITMAP
8004
C00C
6018
3030
1FE0
1FE0
1860
1860
1860
1860
1FE0
3FF0
7038
E01C
800C
ENDCHAR
STARTCHAR 00A5
ENCODING 165
SWIDTH 863 0
DWIDTH 19 0
BBX 17 15 1 0
BITMAP
F00380
780700
3C1E00
1E3C00
0F7800
07F000
03E000
7FFF00
7FFF00
7FFF00
7FFF00
7FFF00
7FFF00
01C000
01C000
ENDCHAR
STARTCHAR 00A6
ENCODING 166
SWIDTH 272 0
DWIDTH 6 0
BBX 2 24 2 -5
BITMAP
C0
C0
C0
C0
C0
C0
C0
C0
C0
C0
00
00
00
00
C0
C0
C0
C0
C0
C0
C0
C0
C0
C0
ENDCHAR
STARTCHAR 00A7
ENCODING 167
SWIDTH 772 0
DWIDTH 17 0
BBX 14 20 1 -5
BITMAP
3FC0
7FC0
FFC0
E000
E000
E000
FFF0
FFF8
FFFC
E01C
E01C
FFFC
7FFC
3FFC
001C
001C
001C
FFFC
FFF8
FFF0
ENDCHAR
STARTCHAR 00A8
ENCODING 168
SWIDTH 500 0
DWIDTH 11 0
BBX 9 3 1 13
BITMAP
E380
E380
E380
ENDCHAR
STARTCHAR 00A9
ENCODING 169
SWIDTH 863 0
DWIDTH 19 0
BBX 17 15 1 0
BITMAP
3FFE00
7FFF00
E00380
C00180
C7F180
CC0180
CC0180
CC0180
CC0180
CC0180
C7F180
C00180
E00380
7FFF00
3FFE00
ENDCHAR
STARTCHAR 00AA
ENCODING 170
SWIDTH 500 0
DWIDTH 11 0
BBX 9 7 1 6
BITMAP
0F00
0F80
7F80
C180
C180
FF80
7F00
ENDCHAR
STARTCHAR 00AB
ENCODING 171
SWIDTH 590 0
DWIDTH 13 0
BBX 12 10 0 2
BITMAP
0410
0C30
3CF0
79E0
E380
E380
79E0
3CF0
0C30
0410
ENDCHAR
STARTCHAR 00AC
ENCODING 172
SWIDTH 545 0
DWIDTH 12 0
BBX 10 10 1 0
BITMAP
FFC0
FFC0
FFC0
00C0
00C0
00C0
00C0
00C0
00C0
00C0
ENDCHAR
STARTCHAR 00AE
ENCODING 174
SWIDTH 863 0
DWIDTH 19 0
BBX 17 15 1 0
BITMAP
3FFE00
7FFF00
E00380
C00180
CFF180
CC1980
CC1980
CC1980
CFF180
CCC180
CC7180
C00180
E00380
7FFF00
3FFE00
ENDCHAR
STARTCHAR 00AF
ENCODING 175
SWIDTH 636 0
DWIDTH 14 0
BBX 12 3 1 14
BITMAP
FFF0
FFF0
FFF0
ENDCHAR
STARTCHAR 00B0
ENCODING 176
SWIDTH 454 0
DWIDTH 10 0
BBX 8 8 1 7
BITMAP
7E
FF
C3
C3
C3
C3
FF
7E
ENDCHAR
STARTCHAR 00B1
ENCODING 177
SWIDTH 590 0
DWIDTH 13 0
BBX 11 14 1 -1
BITMAP
0C00
0C00
0C00
0C00
FFC0
FFC0
FFC0
0C00
0C00
0C00
0000
FFE0
FFE0
FFE0
ENDCHAR
STARTCHAR 00B2
ENCODING 178
SWIDTH 500 0
DWIDTH 11 0
BBX 9 7 1 8
BITMAP
0F00
0F80
FF80
FF80
C000
FF80
FF80
ENDCHAR
STARTCHAR 00B3
ENCODING 179
SWIDTH 500 0
DWIDTH 11 0
BBX 9 7 1 8
BITMAP
0F80
0F80
FF80
FF80
0180
FF80
FF80
ENDCHAR
STARTCHAR 00B4
ENCODING 180
SWIDTH 409 0
DWIDTH 9 0
BBX 5 5 2 13
BITMAP
38
70
70
E0
C0
ENDCHAR
STARTCHAR 00B6
ENCODING 182
SWIDTH 863 0
DWIDTH 19 0
BBX 17 20 1 -4
BITMAP
3FFF80
7FFF80
FFFF80
E1C380
E1C380
E1C380
E1C380
FFC380
7FC380
3FC380
01C380
01C380
01C380
01C380
01C380
01C380
01C380
01C380
01C380
01C380
ENDCHAR
STARTCHAR 00B7
ENCODING 183
SWIDTH 227 0
DWIDTH 5 0
BBX 3 3 1 5
BITMAP
E0
E0
E0
ENDCHAR
STARTCHAR 00B8
ENCODING 184
SWIDTH 272 0
DWIDTH 6 0
BBX 4 4 1 -5
BITMAP
70
60
E0
E0
ENDCHAR
STARTCHAR 00B9
ENCODING 185
SWIDTH 181 0
DWIDTH 4 0
BBX 2 7 1 8
BITMAP
C0
C0
C0
C0
C0
C0
C0
ENDCHAR
STARTCHAR 00BA
ENCODING 186
SWIDTH 500 0
DWIDTH 11 0
BBX 9 6 1 7
BITMAP
7F00
FF80
C180
C180
FF80
7F00
ENDCHAR
STARTCHAR 00BB
ENCODING 187
SWIDTH 590 0
DWIDTH 13 0
BBX 12 10 0 2
BITMAP
8200
C300
F3C0
79E0
1C70
1C70
79E0
F3C0
C300
8200
ENDCHAR
STARTCHAR 00BC
ENCODING 188
SWIDTH 954 0
DWIDTH 21 0
BBX 18 15 1 0
BITMAP
603800
607000
606000
60E000
61C000
618000
630000
070000
0660C0
0C60C0
1C60C0
387FC0
307FC0
7000C0
E000C0
ENDCHAR
STARTCHAR 00BD
ENCODING 189
SWIDTH 818 0
DWIDTH 18 0
BBX 16 15 1 0
BITMAP
6038
6070
6060
60E0
61C0
6180
6300
0700
061E
0C1F
1DFF
39FF
3180
71FF
E1FF
ENDCHAR
STARTCHAR 00BE
ENCODING 190
SWIDTH 1090 0
DWIDTH 24 0
BBX 22 15 1 0
BITMAP
0F8380
0F8700
FF8600
FF8E00
019C00
FF9800
FFB000
007000
00660C
00C60C
01C60C
0387FC
0307FC
07000C
0E000C
ENDCHAR
STARTCHAR 00BF
ENCODING 191
SWIDTH 590 0
DWIDTH 13 0
BBX 11 15 1 0
BITMAP
00E0
00E0
00E0
0000
0000
00E0
7FE0
FFE0
FFC0
E000
E000
E000
FF00
7F00
3F00
ENDCHAR
STARTCHAR 00C0
ENCODING 192
SWIDTH 1045 0
DWIDTH 23 0
BBX 22 21 0 0
BITMAP
00E000
00F000
007000
003800
003800
000000
003800
007C00
00FE00
00EE00
01CF00
03C780
038780
0783C0
0F01C0
0FFFE0
1FFFF0
3FFFF0
3C0078
78003C
F0003C
ENDCHAR
STARTCHAR 00C1
ENCODING 193
SWIDTH 1045 0
DWIDTH 23 0
BBX 22 21 0 0
BITMAP
000E00
001C00
001C00
003800
003000
000000
003800
007C00
00FE00
00EE00
01CF00
03C780
038780
0783C0
0F01C0
0FFFE0
1FFFF0
3FFFF0
3C0078
78003C
F0003C
ENDCHAR
STARTCHAR 00C2
ENCODING 194
SWIDTH 1045 0
DWIDTH 23 0
BBX 22 21 0 0
BITMAP
007800
00FC00
01FC00
01CE00
038700
000000
003800
007C00
00FE00
00EE00
01CF00
03C780
038780
0783C0
0F01C0
0FFFE0
1FFFF0
3FFFF0
3C0078
78003C
F0003C
ENDCHAR
STARTCHAR 00C3
ENCODING 195
SWIDTH 1045 0
DWIDTH 23 0
BBX 22 20 0 0
BITMAP
07FF80
07FF80
07FF80
000000
000000
003800
007C00
00FE00
00EE00
01CF00
03C780
038780
0783C0
0F01C0
0FFFE0
1FFFF0
3FFFF0
3C0078
78003C
F0003C
ENDCHAR
STARTCHAR 00C4
ENCODING 196
SWIDTH 1045 0
DWIDTH 23 0
BBX 22 19 0 0
BITMAP
01C700
01C700
01C700
000000
003800
007C00
00FE00
00EE00
01CF00
03C780
038780
0783C0
0F01C0
0FFFE0
1FFFF0
3FFFF0
3C0078
78003C
F0003C
ENDCHAR
STARTCHAR 00C5
ENCODING 197
SWIDTH 1045 0
DWIDTH 23 0
BBX 22 21 0 0
BITMAP
00FC00
018600
018600
018600
00FE00
000000
003800
007C00
00FE00
00EE00
01CF00
03C780
038780
0783C0
0F01C0
0FFFE0
1FFFF0
3FFFF0
3C0078
78003C
F0003C
ENDCHAR
STARTCHAR 00C6
ENCODING 198
SWIDTH 1363 0
DWIDTH 30 0
BBX 28 15 0 0
BITMAP
007FFC00
007FFC00
00FFFC00
01E70000
01E70000
03C70000
0787FFF0
0787FFF0
0F07FFF0
1FFF0000
1FFF0000
3FFF0000
3C07FFF0
7803FFF0
F001FFF0
ENDCHAR
STARTCHAR 00C7
ENCODING 199
SWIDTH 818 0
DWIDTH 18 0
BBX 16 20 1 -5
BITMAP
3FFF
7FFF
FFFF
F000
E000
E000
E000
E000
E000
E000
E000
F000
FFFF
7FFF
3FFF
0000
01C0
0180
0380
0380
ENDCHAR
STARTCHAR 00C8
ENCODING 200
SWIDTH 818 0
DWIDTH 18 0
BBX 16 21 1 0
BITMAP
0700
0780
0380
01C0
01C0
0000
3F80
7F80
FF80
E000
E000
E000
FFFF
FFFF
FFFF
E000
E000
E000
FFFF
7FFF
3FFF
ENDCHAR
STARTCHAR 00C9
ENCODING 201
SWIDTH 818 0
DWIDTH 18 0
BBX 16 21 1 0
BITMAP
0070
00E0
00E0
01C0
0180
0000
3F80
7F80
FF80
E000
E000
E000
FFFF
FFFF
FFFF
E000
E000
E000
FFFF
7FFF
3FFF
ENDCHAR
STARTCHAR 00CA
ENCODING 202
SWIDTH 818 0
DWIDTH 18 0
BBX 16 21 1 0
BITMAP
01E0
03F0
07F0
0738
0E1C
0000
3F80
7F80
FF80
E000
E000
E000
FFFF
FFFF
FFFF
E000
E000
E000
FFFF
7FFF
3FFF
ENDCHAR
STARTCHAR 00CB
ENCODING 203
SWIDTH 818 0
DWIDTH 18 0
BBX 16 19 1 0
BITMAP
0E38
0E38
0E38
0000
3F80
7F80
FF80
E000
E000
E000
FFFF
FFFF
FFFF
E000
E000
E000
FFFF
7FFF
3FFF
ENDCHAR
STARTCHAR 00CC
ENCODING 204
SWIDTH 227 0
DWIDTH 5 0
BBX 5 21 0 0
BITMAP
E0
F0
70
38
38
00
70
70
70
70
70
70
70
70
70
70
70
70
70
70
70
ENDCHAR
STARTCHAR 00CD
ENCODING 205
SWIDTH 227 0
DWIDTH 5 0
BBX 6 21 1 0
BITMAP
1C
38
38
70
60
00
E0
E0
E0
E0
E0
E0
E0
E0
E0
E0
E0
E0
E0
E0
E0
ENDCHAR
STARTCHAR 00CE
ENCODING 206
SWIDTH 227 0
DWIDTH 5 0
BBX 10 21 -2 0
BITMAP
1E00
3F00
7F00
7380
E1C0
0000
1C00
1C00
1C00
1C00
1C00
1C00
1C00
1C00
1C00
1C00
1C00
1C00
1C00
1C00
1C00
ENDCHAR
STARTCHAR 00CF
ENCODING 207
SWIDTH 227 0
DWIDTH 5 0
BBX 9 19 -2 0
BITMAP
E380
E380
E380
0000
1C00
1C00
1C00
1C00
1C00
1C00
1C00
1C00
1C00
1C00
1C00
1C00
1C00
1C00
1C00
ENDCHAR
STARTCHAR 00D0
ENCODING 208
SWIDTH 909 0
DWIDTH 20 0
BBX 19 15 0 0
BITMAP
3FFF80
3FFFC0
3FFFE0
3801E0
3800E0
3800E0
FFE0E0
FFE0E0
FFE0E0
3800E0
3800E0
3801E0
3FFFE0
3FFFC0
3FFF80
ENDCHAR
STARTCHAR 00D1
ENCODING 209
SWIDTH 909 0
DWIDTH 20 0
BBX 18 20 1 0
BITMAP
1FFE00
1FFE00
1FFE00
000000
000000
E001C0
F801C0
FC01C0
FE01C0
FF01C0
EF81C0
E7C1C0
E3E1C0
E0F9C0
E07DC0
E03FC0
E01FC0
E00FC0
E007C0
E001C0
ENDCHAR
STARTCHAR 00D2
ENCODING 210
SWIDTH 863 0
DWIDTH 19 0
BBX 17 21 1 0
BITMAP
070000
078000
038000
01C000
01C000
000000
3FFE00
7FFF00
FFFF80
F00780
E00380
E00380
E00380
E00380
E00380
E00380
E00380
E00780
FFFF80
7FFF00
3FFE00
ENDCHAR
STARTCHAR 00D3
ENCODING 211
SWIDTH 863 0
DWIDTH 19 0
BBX 17 21 1 0
BITMAP
007000
00E000
00E000
01C000
018000
000000
3FFE00
7FFF00
FFFF80
F00780
E00380
E00380
E00380
E00380
E00380
E00380
E00380
E00780
FFFF80
7FFF00
3FFE00
ENDCHAR
STARTCHAR 00D4
ENCODING 212
SWIDTH 863 0
DWIDTH 19 0
BBX 17 21 1 0
BITMAP
01E000
03F000
07F000
073800
0E1C00
000000
3FFE00
7FFF00
FFFF80
F00780
E00380
E00380
E00380
E00380
E00380
E00380
E00380
E00780
FFFF80
7FFF00
3FFE00
ENDCHAR
STARTCHAR 00D5
ENCODING 213
SWIDTH 863 0
DWIDTH 19 0
BBX 17 20 1 0
BITMAP
1FFE00
1FFE00
1FFE00
000000
000000
3FFE00
7FFF00
FFFF80
F00780
E00380
E00380
E00380
E00380
E00380
E00380
E00380
E00780
FFFF80
7FFF00
3FFE00
ENDCHAR
STARTCHAR 00D6
ENCODING 214
SWIDTH 863 0
DWIDTH 19 0
BBX 17 19 1 0
BITMAP
0E3800
0E3800
0E3800
000000
3FFE00
7FFF00
FFFF80
F00780
E00380
E00380
E00380
E00380
E00380
E00380
E00380
E00780
FFFF80
7FFF00
3FFE00
ENDCHAR
STARTCHAR 00D7
ENCODING 215
SWIDTH 590 0
DWIDTH 13 0
BBX 9 9 2 3
BITMAP
4100
E380
7700
3E00
1C00
3E00
7700
E380
4100
ENDCHAR
STARTCHAR 00D8
ENCODING 216
SWIDTH 863 0
DWIDTH 19 0
BBX 17 19 1 -2
BITMAP
000380
000700
3FFE00
7FFF00
FFFF80
F03B80
E07380
E0F380
E0E380
E1C380
E38380
E78380
E70380
EE0780
FFFF80
7FFF00
3FFE00
700000
E00000
ENDCHAR
STARTCHAR 00D9
ENCODING 217
SWIDTH 863 0
DWIDTH 19 0
BBX 17 21 1 0
BITMAP
070000
078000
038000
01C000
01C000
000000
E00380
E00380
E00380
E00380
E00380
E00380
E00380
E00380
E00380
E00380
E00380
F00780
FFFF80
7FFF00
3FFE00
ENDCHAR
STARTCHAR 00DA
ENCODING 218
SWIDTH 863 0
DWIDTH 19 0
BBX 17 21 1 0
BITMAP
007000
00E000
00E000
01C000
018000
000000
E00380
E00380
E00380
E00380
E00380
E00380
E00380
E00380
E00380
E00380
E00380
F00780
FFFF80
7FFF00
3FFE00
ENDCHAR
STARTCHAR 00DB
ENCODING 219
SWIDTH 863 0
DWIDTH 19 0
BBX 17 21 1 0
BITMAP
01E000
03F000
07F000
073800
0E1C00
000000
E00380
E00380
E00380
E00380
E00380
E00380
E00380
E00380
E00380
E00380
E00380
F00780
FFFF80
7FFF00
3FFE00
ENDCHAR
STARTCHAR 00DC
ENCODING 220
SWIDTH 863 0
DWIDTH 19 0
BBX 17 19 1 0
BITMAP
0E3800
0E3800
0E3800
000000
E00380
E00380
E00380
E00380
E00380
E00380
E00380
E00380
E00380
E00380
E00380
F00780
FFFF80
7FFF00
3FFE00
ENDCHAR
STARTCHAR 00DD
ENCODING 221
SWIDTH 954 0
DWIDTH 21 0
BBX 19 21 1 0
BITMAP
003800
007000
007000
00E000
00C000
000000
F001E0
7803C0
3C0780
1F0F00
0F9E00
07FC00
03F800
00F000
00E000
00E000
00E000
00E000
00E000
00E000
00E000
ENDCHAR
STARTCHAR 00DE
ENCODING 222
SWIDTH 909 0
DWIDTH 20 0
BBX 18 15 1 0
BITMAP
E00000
E00000
FFFF00
FFFF80
FFFFC0
E001C0
E001C0
E001C0
E001C0
E001C0
FFFFC0
FFFF80
FFFF00
E00000
E00000
ENDCHAR
STARTCHAR 00DF
ENCODING 223
SWIDTH 954 0
DWIDTH 21 0
BBX 19 16 1 0
BITMAP
7FC000
FFE000
FFE000
E0E000
E0E000
E0E000
E0FF80
E0FFE0
E07FE0
E000E0
E000E0
E000E0
E000E0
E1FFE0
E1FFC0
E1FF80
ENDCHAR
STARTCHAR 00E0
ENCODING 224
SWIDTH 818 0
DWIDTH 18 0
BBX 16 18 1 0
BITMAP
0700
0780
0380
01C0
01C0
0000
00FC
00FE
00FF
0007
7FFF
FFFF
FFFF
E007
E007
FFFF
FFFE
7FFC
ENDCHAR
STARTCHAR 00E1
ENCODING 225
SWIDTH 818 0
DWIDTH 18 0
BBX 16 18 1 0
BITMAP
0038
0070
0070
00E0
00C0
0000
00FC
00FE
00FF
0007
7FFF
FFFF
FFFF
E007
E007
FFFF
FFFE
7FFC
ENDCHAR
STARTCHAR 00E2
ENCODING 226
SWIDTH 818 0
DWIDTH 18 0
BBX 16 18 1 0
BITMAP
01E0
03F0
07F0
0738
0E1C
0000
00FC
00FE
00FF
0007
7FFF
FFFF
FFFF
E007
E007
FFFF
FFFE
7FFC
ENDCHAR
STARTCHAR 00E3
ENCODING 227
SWIDTH 818 0
DWIDTH 18 0
BBX 16 17 1 0
BITMAP
1FFE
1FFE
1FFE
0000
0000
00FC
00FE
00FF
0007
7FFF
FFFF
FFFF
E007
E007
FFFF
FFFE
7FFC
ENDCHAR
STARTCHAR 00E4
ENCODING 228
SWIDTH 818 0
DWIDTH 18 0
BBX 16 16 1 0
BITMAP
0E38
0E38
0E38
0000
00FC
00FE
00FF
0007
7FFF
FFFF
FFFF
E007
E007
FFFF
FFFE
7FFC
ENDCHAR
STARTCHAR 00E5
ENCODING 229
SWIDTH 818 0
DWIDTH 18 0
BBX 16 18 1 0
BITMAP
03F0
0618
0618
0618
03F8
0000
00FC
00FE
00FF
0007
7FFF
FFFF
FFFF
E007
E007
FFFF
FFFE
7FFC
ENDCHAR
STARTCHAR 00E6
ENCODING 230
SWIDTH 1363 0
DWIDTH 30 0
BBX 28 12 1 0
BITMAP
00FDFFC0
00FFFFF0
0007FFF0
00070070
7FFF0070
FFFFFFF0
FFFFFFF0
E007FFF0
E0070000
FFFF0000
FFFFFC00
3FFDFC00
ENDCHAR
STARTCHAR 00E7
ENCODING 231
SWIDTH 772 0
DWIDTH 17 0
BBX 14 17 1 -5
BITMAP
3FFC
7FFC
FFFC
E000
E000
E000
E000
E000
F000
FFFC
7FFC
3FFC
0000
01C0
0180
0380
0380
ENDCHAR
STARTCHAR 00E8
ENCODING 232
SWIDTH 772 0
DWIDTH 17 0
BBX 15 18 1 0
BITMAP
0E00
0F00
0700
0380
0380
0000
3FF8
7FFE
FFFE
E00E
E00E
FFFE
FFFE
FFFE
E000
FF80
7F80
3F80
ENDCHAR
STARTCHAR 00E9
ENCODING 233
SWIDTH 772 0
DWIDTH 17 0
BBX 15 18 1 0
BITMAP
0070
00E0
00E0
01C0
0180
0000
3FF8
7FFE
FFFE
E00E
E00E
FFFE
FFFE
FFFE
E000
FF80
7F80
3F80
ENDCHAR
STARTCHAR 00EA
ENCODING 234
SWIDTH 772 0
DWIDTH 17 0
BBX 15 18 1 0
BITMAP
03C0
07E0
0FE0
0E70
1C38
0000
3FF8
7FFE
FFFE
E00E
E00E
FFFE
FFFE
FFFE
E000
FF80
7F80
3F80
ENDCHAR
STARTCHAR 00EB
ENCODING 235
SWIDTH 772 0
DWIDTH 17 0
BBX 15 16 1 0
BITMAP
1C70
1C70
1C70
0000
3FF8
7FFE
FFFE
E00E
E00E
FFFE
FFFE
FFFE
E000
FF80
7F80
3F80
ENDCHAR
STARTCHAR 00EC
ENCODING 236
SWIDTH 227 0
DWIDTH 5 0
BBX 5 18 -1 0
BITMAP
E0
F0
70
38
38
00
38
38
38
38
38
38
38
38
38
38
38
38
ENDCHAR
STARTCHAR 00ED
ENCODING 237
SWIDTH 227 0
DWIDTH 5 0
BBX 6 18 1 0
BITMAP
1C
38
38
70
60
00
E0
E0
E0
E0
E0
E0
E0
E0
E0
E0
E0
E0
ENDCHAR
STARTCHAR 00EE
ENCODING 238
SWIDTH 409 0
DWIDTH 9 0
BBX 10 18 0 0
BITMAP
1E00
3F00
7F00
7380
E1C0
0000
1C00
1C00
1C00
1C00
1C00
1C00
1C00
1C00
1C00
1C00
1C00
1C00
ENDCHAR
STARTCHAR 00EF
ENCODING 239
SWIDTH 318 0
DWIDTH 7 0
BBX 9 16 -1 0
BITMAP
E380
E380
E380
0000
3800
3800
3800
3800
3800
3800
3800
3800
3800
3800
3800
3800
ENDCHAR
STARTCHAR 00F0
ENCODING 240
SWIDTH 818 0
DWIDTH 18 0
BBX 18 17 1 0
BITMAP
0001C0
07FF80
07FF00
07FF00
000700
000700
3FFF00
7FFF00
FFFF00
F00700
E00700
E00700
E00700
F00F00
FFFF00
7FFE00
3FFC00
ENDCHAR
STARTCHAR 00F1
ENCODING 241
SWIDTH 772 0
DWIDTH 17 0
BBX 15 17 1 0
BITMAP
3FFC
3FFC
3FFC
0000
0000
3FF8
7FFC
FFFE
F01E
E00E
E00E
E00E
E00E
E00E
E00E
E00E
E00E
ENDCHAR
STARTCHAR 00F2
ENCODING 242
SWIDTH 772 0
DWIDTH 17 0
BBX 15 18 1 0
BITMAP
0E00
0F00
0700
0380
0380
0000
3FF8
7FFC
FFFE
F01E
E00E
E00E
E00E
E00E
F01E
FFFE
7FFC
3FF8
ENDCHAR
STARTCHAR 00F3
ENCODING 243
SWIDTH 772 0
DWIDTH 17 0
BBX 15 18 1 0
BITMAP
0070
00E0
00E0
01C0
0180
0000
3FF8
7FFC
FFFE
F01E
E00E
E00E
E00E
E00E
F01E
FFFE
7FFC
3FF8
ENDCHAR
STARTCHAR 00F4
ENCODING 244
SWIDTH 772 0
DWIDTH 17 0
BBX 15 18 1 0
BITMAP
03C0
07E0
0FE0
0E70
1C38
0000
3FF8
7FFC
FFFE
F01E
E00E
E00E
E00E
E00E
F01E
FFFE
7FFC
3FF8
ENDCHAR
STARTCHAR 00F5
ENCODING 245
SWIDTH 772 0
DWIDTH 17 0
BBX 15 17 1 0
BITMAP
3FFC
3FFC
3FFC
0000
0000
3FF8
7FFC
FFFE
F01E
E00E
E00E
E00E
E00E
F01E
FFFE
7FFC
3FF8
ENDCHAR
STARTCHAR 00F6
ENCODING 246
SWIDTH 772 0
DWIDTH 17 0
BBX 15 16 1 0
BITMAP
1C70
1C70
1C70
0000
3FF8
7FFC
FFFE
F01E
E00E
E00E
E00E
E00E
F01E
FFFE
7FFC
3FF8
ENDCHAR
STARTCHAR 00F7
ENCODING 247
SWIDTH 590 0
DWIDTH 13 0
BBX 11 11 1 2
BITMAP
0E00
0E00
0E00
0000
FFE0
FFE0
FFE0
0000
0E00
0E00
0E00
ENDCHAR
STARTCHAR 00F8
ENCODING 248
SWIDTH 772 0
DWIDTH 17 0
BBX 15 16 1 -2
BITMAP
000E
001C
3FF8
7FFC
FFFE
F0EE
E1CE
E38E
E38E
E70E
EE1E
FFFE
7FFC
3FF8
7000
E000
ENDCHAR
STARTCHAR 00F9
ENCODING 249
SWIDTH 772 0
DWIDTH 17 0
BBX 15 18 1 0
BITMAP
0E00
0F00
0700
0380
0380
0000
E00E
E00E
E00E
E00E
E00E
E00E
E00E
E00E
F00E
FFFE
7FFC
3FF8
ENDCHAR
STARTCHAR 00FA
ENCODING 250
SWIDTH 772 0
DWIDTH 17 0
BBX 15 18 1 0
BITMAP
0070
00E0
00E0
01C0
0180
0000
E00E
E00E
E00E
E00E
E00E
E00E
E00E
E00E
F00E
FFFE
7FFC
3FF8
ENDCHAR
STARTCHAR 00FB
ENCODING 251
SWIDTH 772 0
DWIDTH 17 0
BBX 15 18 1 0
BITMAP
03C0
07E0
0FE0
0E70
1C38
0000
E00E
E00E
E00E
E00E
E00E
E00E
E00E
E00E
F00E
FFFE
7FFC
3FF8
ENDCHAR
STARTCHAR 00FC
ENCODING 252
SWIDTH 772 0
DWIDTH 17 0
BBX 15 16 1 0
BITMAP
1C70
1C70
1C70
0000
E00E
E00E
E00E
E00E
E00E
E00E
E00E
E00E
F00E
FFFE
7FFC
3FF8
ENDCHAR
STARTCHAR 00FD
ENCODING 253
SWIDTH 818 0
DWIDTH 18 0
BBX 16 22 1 -4
BITMAP
0070
00E0
00E0
01C0
0180
0000
E007
E007
E007
E007
E007
E007
E007
E007
FFFF
7FFF
3FFF
0007
0007
01FF
01FF
01FC
ENDCHAR
STARTCHAR 00FE
ENCODING 254
SWIDTH 818 0
DWIDTH 18 0
BBX 16 20 1 -4
BITMAP
E000
E000
E000
E000
FFFC
FFFE
FFFF
E00F
E007
E007
E007
E007
E00F
FFFF
FFFE
FFFC
E000
E000
E000
E000
ENDCHAR
STARTCHAR 00FF
ENCODING 255
SWIDTH 818 0
DWIDTH 18 0
BBX 16 20 1 -4
BITMAP
1C70
1C70
1C70
0000
E007
E007
E007
E007
E007
E007
E007
E007
FFFF
7FFF
3FFF
0007
0007
01FF
01FF
01FC
ENDCHAR
STARTCHAR 0100
ENCODING 256
SWIDTH 1045 0
DWIDTH 23 0
BBX 22 20 0 0
BITMAP
07FF80
07FF80
07FF80
000000
000000
003800
007C00
00FE00
00EE00
01CF00
03C780
038780
0783C0
0F01C0
0FFFE0
1FFFF0
3FFFF0
3C0078
78003C
F0003C
ENDCHAR
STARTCHAR 0101
ENCODING 257
SWIDTH 818 0
DWIDTH 18 0
BBX 16 17 1 0
BITMAP
1FFE
1FFE
1FFE
0000
0000
00FC
00FE
00FF
0007
7FFF
FFFF
FFFF
E007
E007
FFFF
FFFE
7FFC
ENDCHAR
STARTCHAR 0102
ENCODING 258
SWIDTH 1045 0
DWIDTH 23 0
BBX 22 21 0 0
BITMAP
030600
03FE00
03FE00
01FC00
000000
000000
003800
007C00
00FE00
00EE00
01CF00
03C780
038780
0783C0
0F01C0
0FFFE0
1FFFF0
3FFFF0
3C0078
78003C
F0003C
ENDCHAR
STARTCHAR 0103
ENCODING 259
SWIDTH 818 0
DWIDTH 18 0
BBX 16 18 1 0
BITMAP
0C18
0FF8
0FF8
07F0
0000
0000
00FC
00FE
00FF
0007
7FFF
FFFF
FFFF
E007
E007
FFFF
FFFE
7FFC
ENDCHAR
STARTCHAR 0104
ENCODING 260
SWIDTH 1045 0
DWIDTH 23 0
BBX 24 20 0 -5
BITMAP
003800
007C00
00FC00
01EE00
01CF00
03C700
078780
0783C0
0F01C0
0FFFE0
1FFFF0
3FFFF0
3C0078
78003C
F0003C
000038
000070
00007F
00007F
00003F
ENDCHAR
STARTCHAR 0105
ENCODING 261
SWIDTH 818 0
DWIDTH 18 0
BBX 16 17 1 -5
BITMAP
00FC
00FE
00FF
0007
7FFF
FFFF
FFFF
E007
E007
FFFF
FFFE
7FFC
0180
0380
03F8
03F8
01F8
ENDCHAR
STARTCHAR 0106
ENCODING 262
SWIDTH 818 0
DWIDTH 18 0
BBX 16 21 1 0
BITMAP
0070
00E0
00E0
01C0
0180
0000
3FFF
7FFF
FFFF
F000
E000
E000
E000
E000
E000
E000
E000
F000
FFFF
7FFF
3FFF
ENDCHAR
STARTCHAR 0107
ENCODING 263
SWIDTH 772 0
DWIDTH 17 0
BBX 14 18 1 0
BITMAP
00E0
01C0
01C0
0380
0300
0000
3FFC
7FFC
FFFC
E000
E000
E000
E000
E000
F000
FFFC
7FFC
3FFC
ENDCHAR
STARTCHAR 010A
ENCODING 266
SWIDTH 818 0
DWIDTH 18 0
BBX 16 19 1 0
BITMAP
01C0
01C0
01C0
0000
3FFF
7FFF
FFFF
F000
E000
E000
E000
E000
E000
E000
E000
F000
FFFF
7FFF
3FFF
ENDCHAR
STARTCHAR 010B
ENCODING 267
SWIDTH 772 0
DWIDTH 17 0
BBX 14 16 1 0
BITMAP
0380
0380
0380
0000
3FFC
7FFC
FFFC
E000
E000
E000
E000
E000
F000
FFFC
7FFC
3FFC
ENDCHAR
STARTCHAR 010C
ENCODING 268
SWIDTH 818 0
DWIDTH 18 0
BBX 16 21 1 0
BITMAP
0E1C
0738
07F0
03F0
01E0
0000
3FFF
7FFF
FFFF
F000
E000
E000
E000
E000
E000
E000
E000
F000
FFFF
7FFF
3FFF
ENDCHAR
STARTCHAR 010D
ENCODING 269
SWIDTH 772 0
DWIDTH 17 0
BBX 14 18 1 0
BITMAP
1C38
0E70
0FE0
07E0
03C0
0000
3FFC
7FFC
FFFC
E000
E000
E000
E000
E000
F000
FFFC
7FFC
3FFC
ENDCHAR
STARTCHAR 010E
ENCODING 270
SWIDTH 909 0
DWIDTH 20 0
BBX 18 21 1 0
BITMAP
0E1C00
073800
07F000
03F000
01E000
000000
FFFF00
FFFF80
FFFFC0
E003C0
E001C0
E001C0
E001C0
E001C0
E001C0
E001C0
E001C0
E003C0
FFFFC0
FFFF80
FFFF00
ENDCHAR
STARTCHAR 010F
ENCODING 271
SWIDTH 1000 0
DWIDTH 22 0
BBX 20 16 1 0
BITMAP
000770
000770
000770
000770
3FFF70
7FFF60
FFFF00
F00700
E00700
E00700
E00700
E00700
F00700
FFFF00
7FFE00
3FFC00
ENDCHAR
STARTCHAR 0110
ENCODING 272
SWIDTH 909 0
DWIDTH 20 0
BBX 19 15 0 0
BITMAP
3FFF80
3FFFC0
3FFFE0
3801E0
3800E0
3800E0
FFE0E0
FFE0E0
FFE0E0
3800E0
3800E0
3801E0
3FFFE0
3FFFC0
3FFF80
ENDCHAR
STARTCHAR 0111
ENCODING 273
SWIDTH 818 0
DWIDTH 18 0
BBX 17 16 1 0
BITMAP
000700
03FF80
03FF80
03FF80
3FFF00
7FFF00
FFFF00
F00700
E00700
E00700
E00700
E00700
F00700
FFFF00
7FFE00
3FFC00
ENDCHAR
STARTCHAR 0112
ENCODING 274
SWIDTH 818 0
DWIDTH 18 0
BBX 16 20 1 0
BITMAP
1FFE
1FFE
1FFE
0000
0000
3F80
7F80
FF80
E000
E000
E000
FFFF
FFFF
FFFF
E000
E000
E000
FFFF
7FFF
3FFF
ENDCHAR
STARTCHAR 0113
ENCODING 275
SWIDTH 772 0
DWIDTH 17 0
BBX 15 17 1 0
BITMAP
3FFC
3FFC
3FFC
0000
0000
3FF8
7FFE
FFFE
E00E
E00E
FFFE
FFFE
FFFE
E000
FF80
7F80
3F80
ENDCHAR
STARTCHAR 0114
ENCODING 276
SWIDTH 818 0
DWIDTH 18 0
BBX 16 21 1 0
BITMAP
0C18
0FF8
0FF8
07F0
0000
0000
3F80
7F80
FF80
E000
E000
E000
FFFF
FFFF
FFFF
E000
E000
E000
FFFF
7FFF
3FFF
ENDCHAR
STARTCHAR 0115
ENCODING 277
SWIDTH 772 0
DWIDTH 17 0
BBX 15 18 1 0
BITMAP
1830
1FF0
1FF0
0FE0
0000
0000
3FF8
7FFE
FFFE
E00E
E00E
FFFE
FFFE
FFFE
E000
FF80
7F80
3F80
ENDCHAR
STARTCHAR 0116
ENCODING 278
SWIDTH 818 0
DWIDTH 18 0
BBX 16 19 1 0
BITMAP
01C0
01C0
01C0
0000
3F80
7F80
FF80
E000
E000
E000
FFFF
FFFF
FFFF
E000
E000
E000
FFFF
7FFF
3FFF
ENDCHAR
STARTCHAR 0117
ENCODING 279
SWIDTH 772 0
DWIDTH 17 0
BBX 15 16 1 0
BITMAP
0380
0380
0380
0000
3FF8
7FFE
FFFE
E00E
E00E
FFFE
FFFE
FFFE
E000
FF80
7F80
3F80
ENDCHAR
STARTCHAR 0118
ENCODING 280
SWIDTH 863 0
DWIDTH 19 0
BBX 18 20 1 -5
BITMAP
3F8000
7F8000
FF8000
E00000
E00000
E00000
FFFF00
FFFF00
FFFF00
E00000
E00000
E00000
FFFF80
7FFF80
3FFF80
000E00
001C00
001FC0
001FC0
000FC0
ENDCHAR
STARTCHAR 0119
ENCODING 281
SWIDTH 818 0
DWIDTH 18 0
BBX 16 17 1 -5
BITMAP
3FFC
7FFE
FFFF
E007
E007
FFFF
FFFF
FFFF
E000
FFC0
7FC0
3FC0
0600
0E00
0FE0
0FE0
07E0
ENDCHAR
STARTCHAR 011A
ENCODING 282
SWIDTH 818 0
DWIDTH 18 0
BBX 16 21 1 0
BITMAP
0E1C
0738
07F0
03F0
01E0
0000
3F80
7F80
FF80
E000
E000
E000
FFFF
FFFF
FFFF
E000
E000
E000
FFFF
7FFF
3FFF
ENDCHAR
STARTCHAR 011B
ENCODING 283
SWIDTH 772 0
DWIDTH 17 0
BBX 15 18 1 0
BITMAP
1C38
0E70
0FE0
07E0
03C0
0000
3FF8
7FFE
FFFE
E00E
E00E
FFFE
FFFE
FFFE
E000
FF80
7F80
3F80
ENDCHAR
STARTCHAR 011E
ENCODING 286
SWIDTH 863 0
DWIDTH 19 0
BBX 17 21 1 0
BITMAP
0C1800
0FF800
0FF800
07F000
000000
000000
3F8000
7F8000
FF8000
F00000
E00000
E00000
E00380
E00380
E00380
E00380
E00380
E00780
FFFF80
7FFF00
3FFE00
ENDCHAR
STARTCHAR 011F
ENCODING 287
SWIDTH 818 0
DWIDTH 18 0
BBX 16 22 1 -4
BITMAP
1830
1FF0
1FF0
0FE0
0000
0000
3FFC
7FFE
FFFF
E007
E007
E007
E007
E007
FFFF
7FFF
3FFF
0007
0007
01FF
01FF
01FC
ENDCHAR
STARTCHAR 0120
ENCODING 288
SWIDTH 863 0
DWIDTH 19 0
BBX 17 19 1 0
BITMAP
01C000
01C000
01C000
000000
3F8000
7F8000
FF8000
F00000
E00000
E00000
E00380
E00380
E00380
E00380
E00380
E00780
FFFF80
7FFF00
3FFE00
ENDCHAR
STARTCHAR 0121
ENCODING 289
SWIDTH 818 0
DWIDTH 18 0
BBX 16 20 1 -4
BITMAP
0380
0380
0380
0000
3FFC
7FFE
FFFF
E007
E007
E007
E007
E007
FFFF
7FFF
3FFF
0007
0007
01FF
01FF
01FC
ENDCHAR
STARTCHAR 0122
ENCODING 290
SWIDTH 863 0
DWIDTH 19 0
BBX 17 20 1 -5
BITMAP
3F8000
7F8000
FF8000
F00000
E00000
E00000
E00380
E00380
E00380
E00380
E00380
E00780
FFFF80
7FFF00
3FFE00
000000
00E000
00C000
01C000
01C000
ENDCHAR
STARTCHAR 0123
ENCODING 291
SWIDTH 818 0
DWIDTH 18 0
BBX 16 22 1 -4
BITMAP
01C0
01C0
0180
0380
0000
0000
3FFC
7FFE
FFFF
E007
E007
E007
E007
E007
FFFF
7FFF
3FFF
0007
0007
01FF
01FF
01FC
ENDCHAR
STARTCHAR 0126
ENCODING 294
SWIDTH 909 0
DWIDTH 20 0
BBX 18 15 1 0
BITMAP
E001C0
E001C0
FFFFC0
FFFFC0
FFFFC0
E001C0
FFFFC0
FFFFC0
FFFFC0
E001C0
E001C0
E001C0
E001C0
E001C0
E001C0
ENDCHAR
STARTCHAR 0127
ENCODING 295
SWIDTH 818 0
DWIDTH 18 0
BBX 17 16 0 0
BITMAP
700000
FFE000
FFE000
FFE000
7FFE00
7FFF00
7FFF80
700780
700380
700380
700380
700380
700380
700380
700380
700380
ENDCHAR
STARTCHAR 012A
ENCODING 298
SWIDTH 227 0
DWIDTH 5 0
BBX 12 20 -3 0
BITMAP
FFF0
FFF0
FFF0
0000
0000
0E00
0E00
0E00
0E00
0E00
0E00
0E00
0E00
0E00
0E00
0E00
0E00
0E00
0E00
0E00
ENDCHAR
STARTCHAR 012B
ENCODING 299
SWIDTH 409 0
DWIDTH 9 0
BBX 12 17 -1 0
BITMAP
FFF0
FFF0
FFF0
0000
0000
0E00
0E00
0E00
0E00
0E00
0E00
0E00
0E00
0E00
0E00
0E00
0E00
ENDCHAR
STARTCHAR 012C
ENCODING 300
SWIDTH 227 0
DWIDTH 5 0
BBX 9 21 -2 0
BITMAP
C180
FF80
FF80
7F00
0000
0000
1C00
1C00
1C00
1C00
1C00
1C00
1C00
1C00
1C00
1C00
1C00
1C00
1C00
1C00
1C00
ENDCHAR
STARTCHAR 012D
ENCODING 301
SWIDTH 272 0
DWIDTH 6 0
BBX 9 18 -2 0
BITMAP
C180
FF80
FF80
7F00
0000
0000
1C00
1C00
1C00
1C00
1C00
1C00
1C00
1C00
1C00
1C00
1C00
1C00
ENDCHAR
STARTCHAR 012E
ENCODING 302
SWIDTH 227 0
DWIDTH 5 0
BBX 7 20 -1 -5
BITMAP
38
38
38
38
38
38
38
38
38
38
38
38
38
38
38
60
E0
FE
FE
7E
ENDCHAR
STARTCHAR 012F
ENCODING 303
SWIDTH 227 0
DWIDTH 5 0
BBX 7 21 -1 -5
BITMAP
38
38
38
00
38
38
38
38
38
38
38
38
38
38
38
38
60
E0
FE
FE
7E
ENDCHAR
STARTCHAR 0130
ENCODING 304
SWIDTH 227 0
DWIDTH 5 0
BBX 3 19 1 0
BITMAP
E0
E0
E0
00
E0
E0
E0
E0
E0
E0
E0
E0
E0
E0
E0
E0
E0
E0
E0
ENDCHAR
STARTCHAR 0131
ENCODING 305
SWIDTH 227 0
DWIDTH 5 0
BBX 3 12 1 0
BITMAP
E0
E0
E0
E0
E0
E0
E0
E0
E0
E0
E0
E0
ENDCHAR
STARTCHAR 0132
ENCODING 306
SWIDTH 772 0
DWIDTH 17 0
BBX 15 15 1 0
BITMAP
E00E
E00E
E00E
E00E
E00E
E00E
E00E
E00E
E00E
E00E
E00E
E01E
E3FE
E3FC
E3F8
ENDCHAR
STARTCHAR 0133
ENCODING 307
SWIDTH 545 0
DWIDTH 12 0
BBX 10 20 1 -4
BITMAP
E1C0
E1C0
E1C0
0000
E000
E1C0
E1C0
E1C0
E1C0
E1C0
E1C0
E1C0
E1C0
E1C0
E1C0
E1C0
01C0
0FC0
0F80
0F00
ENDCHAR
STARTCHAR 0136
ENCODING 310
SWIDTH 818 0
DWIDTH 18 0
BBX 15 20 1 -5
BITMAP
E01E
E07C
E0F8
E1F0
E3C0
E780
EF00
FE00
EF80
E7C0
E3E0
E1F0
E078
E03C
E01E
0000
01C0
0180
0380
0380
ENDCHAR
STARTCHAR 0137
ENCODING 311
SWIDTH 727 0
DWIDTH 16 0
BBX 14 21 1 -5
BITMAP
E000
E000
E000
E000
E078
E0F0
E1E0
E7C0
EF00
FE00
FF00
EF80
E3C0
E1E0
E0F8
E07C
0000
0380
0300
0700
0700
ENDCHAR
STARTCHAR 0139
ENCODING 313
SWIDTH 772 0
DWIDTH 17 0
BBX 15 21 1 0
BITMAP
1C00
3800
3800
7000
6000
0000
E000
E000
E000
E000
E000
E000
E000
E000
E000
E000
E000
F000
FFFE
7FFE
3FFE
ENDCHAR
STARTCHAR 013A
ENCODING 314
SWIDTH 227 0
DWIDTH 5 0
BBX 6 21 1 0
BITMAP
1C
38
38
70
60
E0
E0
E0
E0
E0
E0
E0
E0
E0
E0
E0
E0
E0
E0
E0
E0
ENDCHAR
STARTCHAR 013B
ENCODING 315
SWIDTH 772 0
DWIDTH 17 0
BBX 15 20 1 -5
BITMAP
E000
E000
E000
E000
E000
E000
E000
E000
E000
E000
E000
F000
FFFE
7FFE
3FFE
0000
01C0
0180
0380
0380
ENDCHAR
STARTCHAR 013C
ENCODING 316
SWIDTH 227 0
DWIDTH 5 0
BBX 4 21 1 -5
BITMAP
E0
E0
E0
E0
E0
E0
E0
E0
E0
E0
E0
E0
E0
E0
E0
E0
00
70
60
E0
E0
ENDCHAR
STARTCHAR 013D
ENCODING 317
SWIDTH 772 0
DWIDTH 17 0
BBX 15 16 1 0
BITMAP
00E0
E0E0
E0E0
E0E0
E0E0
E0C0
E000
E000
E000
E000
E000
E000
F000
FFFE
7FFE
3FFE
ENDCHAR
STARTCHAR 013E
ENCODING 318
SWIDTH 409 0
DWIDTH 9 0
BBX 8 16 1 0
BITMAP
E7
E7
E7
E7
E7
E6
E0
E0
E0
E0
E0
E0
E0
E0
E0
E0
ENDCHAR
STARTCHAR 013F
ENCODING 319
SWIDTH 772 0
DWIDTH 17 0
BBX 15 15 1 0
BITMAP
E000
E000
E000
E000
E000
E1C0
E1C0
E1C0
E000
E000
E000
F000
FFFE
7FFE
3FFE
ENDCHAR
STARTCHAR 0140
ENCODING 320
SWIDTH 409 0
DWIDTH 9 0
BBX 8 16 1 0
BITMAP
E0
E0
E0
E0
E0
E0
E7
E7
E7
E0
E0
E0
E0
E0
E0
E0
ENDCHAR
STARTCHAR 0141
ENCODING 321
SWIDTH 772 0
DWIDTH 17 0
BBX 17 15 0 0
BITMAP
380000
380000
39F000
3FF000
FFE000
F80000
380000
380000
380000
380000
380000
3C0000
3FFF80
1FFF80
0FFF80
ENDCHAR
STARTCHAR 0142
ENCODING 322
SWIDTH 318 0
DWIDTH 7 0
BBX 7 16 0 0
BITMAP
38
38
38
38
7E
FE
F8
38
38
38
38
38
38
38
38
38
ENDCHAR
STARTCHAR 0143
ENCODING 323
SWIDTH 909 0
DWIDTH 20 0
BBX 18 21 1 0
BITMAP
003800
007000
007000
00E000
00C000
000000
E001C0
F801C0
FC01C0
FE01C0
FF01C0
EF81C0
E7C1C0
E3E1C0
E0F9C0
E07DC0
E03FC0
E01FC0
E00FC0
E007C0
E001C0
ENDCHAR
STARTCHAR 0144
ENCODING 324
SWIDTH 772 0
DWIDTH 17 0
BBX 15 18 1 0
BITMAP
0070
00E0
00E0
01C0
0180
0000
3FF8
7FFC
FFFE
F01E
E00E
E00E
E00E
E00E
E00E
E00E
E00E
E00E
ENDCHAR
STARTCHAR 0145
ENCODING 325
SWIDTH 909 0
DWIDTH 20 0
BBX 18 20 1 -5
BITMAP
E001C0
F801C0
FC01C0
FE01C0
FF01C0
EF81C0
E7C1C0
E3E1C0
E0F9C0
E07DC0
E03FC0
E01FC0
E00FC0
E007C0
E001C0
000000
00E000
00C000
01C000
01C000
ENDCHAR
STARTCHAR 0146
ENCODING 326
SWIDTH 772 0
DWIDTH 17 0
BBX 15 17 1 -5
BITMAP
3FF8
7FFC
FFFE
F01E
E00E
E00E
E00E
E00E
E00E
E00E
E00E
E00E
0000
01C0
0180
0380
0380
ENDCHAR
STARTCHAR 0147
ENCODING 327
SWIDTH 909 0
DWIDTH 20 0
BBX 18 21 1 0
BITMAP
0E1C00
073800
07F000
03F000
01E000
000000
E001C0
F801C0
FC01C0
FE01C0
FF01C0
EF81C0
E7C1C0
E3E1C0
E0F9C0
E07DC0
E03FC0
E01FC0
E00FC0
E007C0
E001C0
ENDCHAR
STARTCHAR 0148
ENCODING 328
SWIDTH 772 0
DWIDTH 17 0
BBX 15 18 1 0
BITMAP
1C38
0E70
0FE0
07E0
03C0
0000
3FF8
7FFC
FFFE
F01E
E00E
E00E
E00E
E00E
E00E
E00E
E00E
E00E
ENDCHAR
STARTCHAR 014A
ENCODING 330
SWIDTH 909 0
DWIDTH 20 0
BBX 18 20 1 -5
BITMAP
E001C0
F801C0
FC01C0
FE01C0
FF01C0
EF81C0
E7C1C0
E3E1C0
E1F1C0
E079C0
E03FC0
E01FC0
E00FC0
E007C0
E003C0
0001C0
0001C0
000FC0
000F80
000F00
ENDCHAR
STARTCHAR 014B
ENCODING 331
SWIDTH 772 0
DWIDTH 17 0
BBX 15 17 1 -5
BITMAP
3FF8
7FFC
FFFE
F01E
E00E
E00E
E00E
E00E
E00E
E00E
E00E
E00E
000E
000E
007E
007C
0078
ENDCHAR
STARTCHAR 014C
ENCODING 332
SWIDTH 863 0
DWIDTH 19 0
BBX 17 20 1 0
BITMAP
1FFE00
1FFE00
1FFE00
000000
000000
3FFE00
7FFF00
FFFF80
F00780
E00380
E00380
E00380
E00380
E00380
E00380
E00380
E00780
FFFF80
7FFF00
3FFE00
ENDCHAR
STARTCHAR 014D
ENCODING 333
SWIDTH 772 0
DWIDTH 17 0
BBX 15 17 1 0
BITMAP
3FFC
3FFC
3FFC
0000
0000
3FF8
7FFC
FFFE
F01E
E00E
E00E
E00E
E00E
F01E
FFFE
7FFC
3FF8
ENDCHAR
STARTCHAR 014E
ENCODING 334
SWIDTH 863 0
DWIDTH 19 0
BBX 17 21 1 0
BITMAP
0C1800
0FF800
0FF800
07F000
000000
000000
3FFE00
7FFF00
FFFF80
F00780
E00380
E00380
E00380
E00380
E00380
E00380
E00380
E00780
FFFF80
7FFF00
3FFE00
ENDCHAR
STARTCHAR 014F
ENCODING 335
SWIDTH 772 0
DWIDTH 17 0
BBX 15 18 1 0
BITMAP
1830
1FF0
1FF0
0FE0
0000
0000
3FF8
7FFC
FFFE
F01E
E00E
E00E
E00E
E00E
F01E
FFFE
7FFC
3FF8
ENDCHAR
STARTCHAR 0150
ENCODING 336
SWIDTH 863 0
DWIDTH 19 0
BBX 17 21 1 0
BITMAP
038E00
071C00
071C00
0E3800
0C3000
000000
3FFE00
7FFF00
FFFF80
F00780
E00380
E00380
E00380
E00380
E00380
E00380
E00380
E00780
FFFF80
7FFF00
3FFE00
ENDCHAR
STARTCHAR 0151
ENCODING 337
SWIDTH 772 0
DWIDTH 17 0
BBX 15 18 1 0
BITMAP
038E
071C
071C
0E38
0C30
0000
3FF8
7FFC
FFFE
F01E
E00E
E00E
E00E
E00E
F01E
FFFE
7FFC
3FF8
ENDCHAR
STARTCHAR 0152
ENCODING 338
SWIDTH 1454 0
DWIDTH 32 0
BBX 30 15 1 0
BITMAP
3FFEFE00
7FFFFE00
FFFFFE00
F0078000
E0038000
E0038000
E003FFFC
E003FFFC
E003FFFC
E0038000
E0038000
E0078000
FFFFFFFC
7FFFFFFC
3FFEFFFC
ENDCHAR
STARTCHAR 0153
ENCODING 339
SWIDTH 1318 0
DWIDTH 29 0
BBX 27 12 1 0
BITMAP
3FFBFF80
7FFFFFE0
FFFFFFE0
F01E00E0
E00E00E0
E00FFFE0
E00FFFE0
E00FFFE0
F01E0000
FFFFF800
7FFFF800
3FFBF800
ENDCHAR
STARTCHAR 0154
ENCODING 340
SWIDTH 909 0
DWIDTH 20 0
BBX 18 21 1 0
BITMAP
003800
007000
007000
00E000
00C000
000000
FFFF00
FFFF80
FFFFC0
E001C0
E001C0
E001C0
E001C0
FFFFC0
FFFF80
FFFF00
E7C000
E3F000
E0FC00
E03E00
E01F80
ENDCHAR
STARTCHAR 0155
ENCODING 341
SWIDTH 454 0
DWIDTH 10 0
BBX 8 18 1 0
BITMAP
07
0E
0E
1C
18
00
3E
7E
FE
E0
E0
E0
E0
E0
E0
E0
E0
E0
ENDCHAR
STARTCHAR 0156
ENCODING 342
SWIDTH 909 0
DWIDTH 20 0
BBX 18 20 1 -5
BITMAP
FFFF00
FFFF80
FFFFC0
E001C0
E001C0
E001C0
E001C0
FFFFC0
FFFF80
FFFF00
E7C000
E3F000
E0FC00
E03E00
E01F80
000000
00E000
00C000
01C000
01C000
ENDCHAR
STARTCHAR 0157
ENCODING 343
SWIDTH 454 0
DWIDTH 10 0
BBX 7 17 1 -5
BITMAP
3E
7E
FE
E0
E0
E0
E0
E0
E0
E0
E0
E0
00
70
60
E0
E0
ENDCHAR
STARTCHAR 0158
ENCODING 344
SWIDTH 909 0
DWIDTH 20 0
BBX 18 21 1 0
BITMAP
0E1C00
073800
07F000
03F000
01E000
000000
FFFF00
FFFF80
FFFFC0
E001C0
E001C0
E001C0
E001C0
FFFFC0
FFFF80
FFFF00
E7C000
E3F000
E0FC00
E03E00
E01F80
ENDCHAR
STARTCHAR 0159
ENCODING 345
SWIDTH 454 0
DWIDTH 10 0
BBX 10 18 1 0
BITMAP
E1C0
7380
7F00
3F00
1E00
0000
3E00
7E00
FE00
E000
E000
E000
E000
E000
E000
E000
E000
E000
ENDCHAR
STARTCHAR 015A
ENCODING 346
SWIDTH 818 0
DWIDTH 18 0
BBX 16 21 1 0
BITMAP
0070
00E0
00E0
01C0
0180
0000
3F80
7F80
FF80
E000
E000
E000
FFFC
FFFE
3FFF
0007
0007
0007
FFFF
FFFE
FFFC
ENDCHAR
STARTCHAR 015B
ENCODING 347
SWIDTH 727 0
DWIDTH 16 0
BBX 14 18 1 0
BITMAP
00E0
01C0
01C0
0380
0300
0000
7F00
FF00
FF00
E000
FFF8
FFFC
7FFC
001C
001C
FFFC
FFFC
FFF8
ENDCHAR
STARTCHAR 015E
ENCODING 350
SWIDTH 818 0
DWIDTH 18 0
BBX 16 20 1 -5
BITMAP
3F80
7F80
FF80
E000
E000
E000
FFFC
FFFE
3FFF
0007
0007
0007
FFFF
FFFE
FFFC
0000
01C0
0180
0380
0380
ENDCHAR
STARTCHAR 015F
ENCODING 351
SWIDTH 727 0
DWIDTH 16 0
BBX 14 17 1 -5
BITMAP
7F00
FF00
FF00
E000
FFF8
FFFC
7FFC
001C
001C
FFFC
FFFC
FFF8
0000
0380
0300
0700
0700
ENDCHAR
STARTCHAR 0160
ENCODING 352
SWIDTH 818 0
DWIDTH 18 0
BBX 16 21 1 0
BITMAP
1C38
0E70
0FE0
07E0
03C0
0000
3F80
7F80
FF80
E000
E000
E000
FFFC
FFFE
3FFF
0007
0007
0007
FFFF
FFFE
FFFC
ENDCHAR
STARTCHAR 0161
ENCODING 353
SWIDTH 727 0
DWIDTH 16 0
BBX 14 18 1 0
BITMAP
3870
1CE0
1FC0
0FC0
0780
0000
7F00
FF00
FF00
E000
FFF8
FFFC
7FFC
001C
001C
FFFC
FFFC
FFF8
ENDCHAR
STARTCHAR 0162
ENCODING 354
SWIDTH 772 0
DWIDTH 17 0
BBX 15 20 1 -5
BITMAP
FFFE
FFFE
FFFE
0380
0380
0380
0380
0380
0380
0380
0380
0380
0380
0380
0380
0000
0380
0300
0700
0700
ENDCHAR
STARTCHAR 0163
ENCODING 355
SWIDTH 409 0
DWIDTH 9 0
BBX 9 20 0 -5
BITMAP
3800
3800
3800
FF80
FF80
FF80
3800
3800
3800
3800
3800
3800
3800
3800
3800
0000
3800
3000
7000
7000
ENDCHAR
STARTCHAR 0164
ENCODING 356
SWIDTH 772 0
DWIDTH 17 0
BBX 15 21 1 0
BITMAP
3870
1CE0
1FC0
0FC0
0780
0000
FFFE
FFFE
FFFE
0380
0380
0380
0380
0380
0380
0380
0380
0380
0380
0380
0380
ENDCHAR
STARTCHAR 0165
ENCODING 357
SWIDTH 590 0
DWIDTH 13 0
BBX 13 16 0 0
BITMAP
0038
3838
3838
3838
FFB8
FFB0
FF80
3800
3800
3800
3800
3800
3800
3800
3800
3800
ENDCHAR
STARTCHAR 0166
ENCODING 358
SWIDTH 772 0
DWIDTH 17 0
BBX 15 15 1 0
BITMAP
FFFE
FFFE
FFFE
0380
0380
0380
0380
1FF0
1FF0
1FF0
0380
0380
0380
0380
0380
ENDCHAR
STARTCHAR 0167
ENCODING 359
SWIDTH 409 0
DWIDTH 9 0
BBX 9 15 0 0
BITMAP
3800
3800
3800
FF80
FF80
FF80
3800
3800
7F00
7F00
7F00
3800
3800
3800
3800
ENDCHAR
STARTCHAR 0168
ENCODING 360
SWIDTH 863 0
DWIDTH 19 0
BBX 17 20 1 0
BITMAP
1FFE00
1FFE00
1FFE00
000000
000000
E00380
E00380
E00380
E00380
E00380
E00380
E00380
E00380
E00380
E00380
E00380
F00780
FFFF80
7FFF00
3FFE00
ENDCHAR
STARTCHAR 0169
ENCODING 361
SWIDTH 772 0
DWIDTH 17 0
BBX 15 17 1 0
BITMAP
3FFC
3FFC
3FFC
0000
0000
E00E
E00E
E00E
E00E
E00E
E00E
E00E
E00E
F00E
FFFE
7FFC
3FF8
ENDCHAR
STARTCHAR 016A
ENCODING 362
SWIDTH 863 0
DWIDTH 19 0
BBX 17 20 1 0
BITMAP
1FFE00
1FFE00
1FFE00
000000
000000
E00380
E00380
E00380
E00380
E00380
E00380
E00380
E00380
E00380
E00380
E00380
F00780
FFFF80
7FFF00
3FFE00
ENDCHAR
STARTCHAR 016B
ENCODING 363
SWIDTH 772 0
DWIDTH 17 0
BBX 15 17 1 0
BITMAP
3FFC
3FFC
3FFC
0000
0000
E00E
E00E
E00E
E00E
E00E
E00E
E00E
E00E
F00E
FFFE
7FFC
3FF8
ENDCHAR
STARTCHAR 016C
ENCODING 364
SWIDTH 863 0
DWIDTH 19 0
BBX 17 21 1 0
BITMAP
0C1800
0FF800
0FF800
07F000
000000
000000
E00380
E00380
E00380
E00380
E00380
E00380
E00380
E00380
E00380
E00380
E00380
F00780
FFFF80
7FFF00
3FFE00
ENDCHAR
STARTCHAR 016D
ENCODING 365
SWIDTH 772 0
DWIDTH 17 0
BBX 15 18 1 0
BITMAP
1830
1FF0
1FF0
0FE0
0000
0000
E00E
E00E
E00E
E00E
E00E
E00E
E00E
E00E
F00E
FFFE
7FFC
3FF8
ENDCHAR
STARTCHAR 016E
ENCODING 366
SWIDTH 863 0
DWIDTH 19 0
BBX 17 21 1 0
BITMAP
03F000
061800
061800
061800
03F800
000000
E00380
E00380
E00380
E00380
E00380
E00380
E00380
E00380
E00380
E00380
E00380
F00780
FFFF80
7FFF00
3FFE00
ENDCHAR
STARTCHAR 016F
ENCODING 367
SWIDTH 772 0
DWIDTH 17 0
BBX 15 18 1 0
BITMAP
07E0
0C30
0C30
0C30
07F0
0000
E00E
E00E
E00E
E00E
E00E
E00E
E00E
E00E
F00E
FFFE
7FFC
3FF8
ENDCHAR
STARTCHAR 0170
ENCODING 368
SWIDTH 863 0
DWIDTH 19 0
BBX 17 21 1 0
BITMAP
038E00
071C00
071C00
0E3800
0C3000
000000
E00380
E00380
E00380
E00380
E00380
E00380
E00380
E00380
E00380
E00380
E00380
F00780
FFFF80
7FFF00
3FFE00
ENDCHAR
STARTCHAR 0171
ENCODING 369
SWIDTH 772 0
DWIDTH 17 0
BBX 15 18 1 0
BITMAP
038E
071C
071C
0E38
0C30
0000
E00E
E00E
E00E
E00E
E00E
E00E
E00E
E00E
F00E
FFFE
7FFC
3FF8
ENDCHAR
STARTCHAR 0172
ENCODING 370
SWIDTH 863 0
DWIDTH 19 0
BBX 17 20 1 -5
BITMAP
E00380
E00380
E00380
E00380
E00380
E00380
E00380
E00380
E00380
E00380
E00380
F00780
FFFF80
7FFF00
3FFE00
01C000
038000
03F800
03F800
01F800
ENDCHAR
STARTCHAR 0173
ENCODING 371
SWIDTH 772 0
DWIDTH 17 0
BBX 15 17 1 -5
BITMAP
E00E
E00E
E00E
E00E
E00E
E00E
E00E
E00E
F00E
FFFE
7FFC
3FF8
0380
0700
07F0
07F0
03F0
ENDCHAR
STARTCHAR 0174
ENCODING 372
SWIDTH 1363 0
DWIDTH 30 0
BBX 29 21 0 0
BITMAP
00078000
000FC000
001FC000
001CE000
00387000
00000000
F0070078
78078078
780F8070
380FC0F0
3C1FC0E0
1C1DE1E0
1E3CE1C0
1E38F1C0
0E7873C0
0F707B80
07F03F80
07E03F00
03E01F00
03C01E00
01800E00
ENDCHAR
STARTCHAR 0175
ENCODING 373
SWIDTH 1090 0
DWIDTH 24 0
BBX 24 18 0 0
BITMAP
003C00
007E00
00FE00
00E700
01C380
000000
F01C07
703C0F
783E0E
387E1E
387F1C
1CE73C
1CE7B8
1FC3F8
0FC3F0
0F81F0
0781E0
0700E0
ENDCHAR
STARTCHAR 0176
ENCODING 374
SWIDTH 954 0
DWIDTH 21 0
BBX 19 21 1 0
BITMAP
00F000
01F800
03F800
039C00
070E00
000000
F001E0
7803C0
3C0780
1F0F00
0F9E00
07FC00
03F800
00F000
00E000
00E000
00E000
00E000
00E000
00E000
00E000
ENDCHAR
STARTCHAR 0177
ENCODING 375
SWIDTH 818 0
DWIDTH 18 0
BBX 16 22 1 -4
BITMAP
03C0
07E0
0FE0
0E70
1C38
0000
E007
E007
E007
E007
E007
E007
E007
E007
FFFF
7FFF
3FFF
0007
0007
01FF
01FF
01FC
ENDCHAR
STARTCHAR 0178
ENCODING 376
SWIDTH 954 0
DWIDTH 21 0
BBX 19 19 1 0
BITMAP
071C00
071C00
071C00
000000
F001E0
7803C0
3C0780
1F0F00
0F9E00
07FC00
03F800
00F000
00E000
00E000
00E000
00E000
00E000
00E000
00E000
ENDCHAR
STARTCHAR 0179
ENCODING 377
SWIDTH 863 0
DWIDTH 19 0
BBX 17 21 1 0
BITMAP
007000
00E000
00E000
01C000
018000
000000
FFFF00
FFFF00
FFFF00
001E00
007C00
00F800
01F000
03C000
078000
0F0000
3E0000
7C0000
FFFF80
FFFF80
FFFF80
ENDCHAR
STARTCHAR 017A
ENCODING 378
SWIDTH 681 0
DWIDTH 15 0
BBX 14 18 1 0
BITMAP
01C0
0380
0380
0700
0600
0000
FFF8
FFF8
FFF0
00E0
01C0
0380
0F00
1C00
3800
7FFC
FFFC
FFFC
ENDCHAR
STARTCHAR 017B
ENCODING 379
SWIDTH 863 0
DWIDTH 19 0
BBX 17 19 1 0
BITMAP
038000
038000
038000
000000
FFFF00
FFFF00
FFFF00
001E00
007C00
00F800
01F000
03C000
078000
0F0000
3E0000
7C0000
FFFF80
FFFF80
FFFF80
ENDCHAR
STARTCHAR 017C
ENCODING 380
SWIDTH 681 0
DWIDTH 15 0
BBX 14 16 1 0
BITMAP
0700
0700
0700
0000
FFF8
FFF8
FFF0
00E0
01C0
0380
0F00
1C00
3800
7FFC
FFFC
FFFC
ENDCHAR
STARTCHAR 017D
ENCODING 381
SWIDTH 863 0
DWIDTH 19 0
BBX 17 21 1 0
BITMAP
1C3800
0E7000
0FE000
07E000
03C000
000000
FFFF00
FFFF00
FFFF00
001E00
007C00
00F800
01F000
03C000
078000
0F0000
3E0000
7C0000
FFFF80
FFFF80
FFFF80
ENDCHAR
STARTCHAR 017E
ENCODING 382
SWIDTH 681 0
DWIDTH 15 0
BBX 14 18 1 0
BITMAP
3870
1CE0
1FC0
0FC0
0780
0000
FFF8
FFF8
FFF0
00E0
01C0
0380
0F00
1C00
3800
7FFC
FFFC
FFFC
ENDCHAR
STARTCHAR 0192
ENCODING 402
SWIDTH 545 0
DWIDTH 12 0
BBX 12 18 0 -3
BITMAP
00F0
03F0
03F0
0780
0700
3FE0
3FE0
3FE0
0600
0600
0E00
0E00
0E00
0E00
1C00
FC00
F800
F000
ENDCHAR
STARTCHAR 0218
ENCODING 536
SWIDTH 818 0
DWIDTH 18 0
BBX 16 20 1 -5
BITMAP
3F80
7F80
FF80
E000
E000
E000
FFFC
FFFE
3FFF
0007
0007
0007
FFFF
FFFE
FFFC
0000
01C0
0180
0380
0380
ENDCHAR
STARTCHAR 0219
ENCODING 537
SWIDTH 727 0
DWIDTH 16 0
BBX 14 17 1 -5
BITMAP
7F00
FF00
FF00
E000
FFF8
FFFC
7FFC
001C
001C
FFFC
FFFC
FFF8
0000
0380
0300
0700
0700
ENDCHAR
STARTCHAR 021A
ENCODING 538
SWIDTH 772 0
DWIDTH 17 0
BBX 15 20 1 -5
BITMAP
FFFE
FFFE
FFFE
0380
0380
0380
0380
0380
0380
0380
0380
0380
0380
0380
0380
0000
0380
0300
0700
0700
ENDCHAR
STARTCHAR 021B
ENCODING 539
SWIDTH 409 0
DWIDTH 9 0
BBX 9 20 0 -5
BITMAP
3800
3800
3800
FF80
FF80
FF80
3800
3800
3800
3800
3800
3800
3800
3800
3800
0000
3800
3000
7000
7000
ENDCHAR
STARTCHAR 02C6
ENCODING 710
SWIDTH 636 0
DWIDTH 14 0
BBX 10 5 2 13
BITMAP
1E00
3F00
7F00
7380
E1C0
ENDCHAR
STARTCHAR 02C7
ENCODING 711
SWIDTH 636 0
DWIDTH 14 0
BBX 10 5 2 13
BITMAP
E1C0
7380
7F00
3F00
1E00
ENDCHAR
STARTCHAR 02D8
ENCODING 728
SWIDTH 500 0
DWIDTH 11 0
BBX 9 4 1 14
BITMAP
C180
FF80
FF80
7F00
ENDCHAR
STARTCHAR 02D9
ENCODING 729
SWIDTH 227 0
DWIDTH 5 0
BBX 3 3 1 13
BITMAP
E0
E0
E0
ENDCHAR
STARTCHAR 02DA
ENCODING 730
SWIDTH 454 0
DWIDTH 10 0
BBX 8 5 1 13
BITMAP
7E
C3
C3
C3
7F
ENDCHAR
STARTCHAR 02DB
ENCODING 731
SWIDTH 409 0
DWIDTH 9 0
BBX 7 5 1 -5
BITMAP
78
E0
FE
FE
7E
ENDCHAR
STARTCHAR 02DC
ENCODING 732
SWIDTH 636 0
DWIDTH 14 0
BBX 12 3 1 14
BITMAP
FFF0
FFF0
FFF0
ENDCHAR
STARTCHAR 02DD
ENCODING 733
SWIDTH 681 0
DWIDTH 15 0
BBX 11 5 2 13
BITMAP
38E0
71C0
71C0
E380
C300
ENDCHAR
STARTCHAR 0394
ENCODING 916
SWIDTH 1045 0
DWIDTH 23 0
BBX 22 15 0 0
BITMAP
003800
007C00
00FE00
00EE00
01EF00
03C780
038780
0783C0
0F01C0
0E01E0
1E00F0
3C0070
3FFFF8
7FFFFC
FFFFFC
ENDCHAR
STARTCHAR 039B
ENCODING 923
SWIDTH 1045 0
DWIDTH 23 0
BBX 22 15 0 0
BITMAP
003800
007C00
00FC00
01FE00
01EF00
03CF00
038780
0783C0
0F03C0
0F01E0
1E00F0
3C00F0
3C0078
780078
F0003C
ENDCHAR
STARTCHAR 03A9
ENCODING 937
SWIDTH 863 0
DWIDTH 19 0
BBX 17 15 1 0
BITMAP
3FFE00
7FFF00
FFFF80
E00380
E00380
E00380
E00380
E00380
E00380
600300
300600
380C00
F80F80
F80F80
F80F80
ENDCHAR
STARTCHAR 03BC
ENCODING 956
SWIDTH 818 0
DWIDTH 18 0
BBX 16 16 1 -4
BITMAP
E007
E007
E007
E007
E007
E007
E007
E007
E00F
FFFF
FFFE
FFFC
E000
E000
E000
E000
ENDCHAR
STARTCHAR 03C0
ENCODING 960
SWIDTH 818 0
DWIDTH 18 0
BBX 16 12 1 0
BITMAP
FFFF
FFFF
FFFF
E007
E007
E007
E007
E007
E007
E007
E007
E007
ENDCHAR
STARTCHAR 1E80
ENCODING 7808
SWIDTH 1363 0
DWIDTH 30 0
BBX 29 21 0 0
BITMAP
001C0000
001E0000
000E0000
00070000
00070000
00000000
F0070078
78078078
780F8070
380FC0F0
3C1FC0E0
1C1DE1E0
1E3CE1C0
1E38F1C0
0E7873C0
0F707B80
07F03F80
07E03F00
03E01F00
03C01E00
01800E00
ENDCHAR
STARTCHAR 1E81
ENCODING 7809
SWIDTH 1090 0
DWIDTH 24 0
BBX 24 18 0 0
BITMAP
007000
007800
003800
001C00
001C00
000000
F01C07
703C0F
783E0E
387E1E
387F1C
1CE73C
1CE7B8
1FC3F8
0FC3F0
0F81F0
0781E0
0700E0
ENDCHAR
STARTCHAR 1E82
ENCODING 7810
SWIDTH 1363 0
DWIDTH 30 0
BBX 29 21 0 0
BITMAP
0001C000
00038000
00038000
00070000
00060000
00000000
F0070078
78078078
780F8070
380FC0F0
3C1FC0E0
1C1DE1E0
1E3CE1C0
1E38F1C0
0E7873C0
0F707B80
07F03F80
07E03F00
03E01F00
03C01E00
01800E00
ENDCHAR
STARTCHAR 1E83
ENCODING 7811
SWIDTH 1090 0
DWIDTH 24 0
BBX 24 18 0 0
BITMAP
000700
000E00
000E00
001C00
001800
000000
F01C07
703C0F
783E0E
387E1E
387F1C
1CE73C
1CE7B8
1FC3F8
0FC3F0
0F81F0
0781E0
0700E0
ENDCHAR
STARTCHAR 1E84
ENCODING 7812
SWIDTH 1363 0
DWIDTH 30 0
BBX 29 19 0 0
BITMAP
0038E000
0038E000
0038E000
00000000
F0070078
78078078
780F8070
380FC0F0
3C1FC0E0
1C1DE1E0
1E3CE1C0
1E38F1C0
0E7873C0
0F707B80
07F03F80
07E03F00
03E01F00
03C01E00
01800E00
ENDCHAR
STARTCHAR 1E85
ENCODING 7813
SWIDTH 1090 0
DWIDTH 24 0
BBX 24 16 0 0
BITMAP
01C700
01C700
01C700
000000
F01C07
703C0F
783E0E
387E1E
387F1C
1CE73C
1CE7B8
1FC3F8
0FC3F0
0F81F0
0781E0
0700E0
ENDCHAR
STARTCHAR 1EF2
ENCODING 7922
SWIDTH 954 0
DWIDTH 21 0
BBX 19 21 1 0
BITMAP
038000
03C000
01C000
00E000
00E000
000000
F001E0
7803C0
3C0780
1F0F00
0F9E00
07FC00
03F800
00F000
00E000
00E000
00E000
00E000
00E000
00E000
00E000
ENDCHAR
STARTCHAR 1EF3
ENCODING 7923
SWIDTH 818 0
DWIDTH 18 0
BBX 16 22 1 -4
BITMAP
0700
0780
0380
01C0
01C0
0000
E007
E007
E007
E007
E007
E007
E007
E007
FFFF
7FFF
3FFF
0007
0007
01FF
01FF
01FC
ENDCHAR
STARTCHAR 2013
ENCODING 8211
SWIDTH 681 0
DWIDTH 15 0
BBX 14 3 1 6
BITMAP
FFFC
FFFC
FFFC
ENDCHAR
STARTCHAR 2014
ENCODING 8212
SWIDTH 954 0
DWIDTH 21 0
BBX 19 3 1 6
BITMAP
FFFFE0
FFFFE0
FFFFE0
ENDCHAR
STARTCHAR 2018
ENCODING 8216
SWIDTH 227 0
DWIDTH 5 0
BBX 3 6 1 10
BITMAP
E0
E0
E0
60
60
60
ENDCHAR
STARTCHAR 2019
ENCODING 8217
SWIDTH 227 0
DWIDTH 5 0
BBX 3 6 1 10
BITMAP
E0
E0
E0
E0
E0
C0
ENDCHAR
STARTCHAR 201A
ENCODING 8218
SWIDTH 227 0
DWIDTH 5 0
BBX 3 6 1 -2
BITMAP
E0
E0
E0
E0
E0
C0
ENDCHAR
STARTCHAR 201C
ENCODING 8220
SWIDTH 454 0
DWIDTH 10 0
BBX 8 6 1 10
BITMAP
E7
E7
E7
63
63
63
ENDCHAR
STARTCHAR 201D
ENCODING 8221
SWIDTH 454 0
DWIDTH 10 0
BBX 8 6 1 10
BITMAP
E7
E7
E7
E7
E7
C6
ENDCHAR
STARTCHAR 201E
ENCODING 8222
SWIDTH 454 0
DWIDTH 10 0
BBX 8 6 1 -2
BITMAP
E7
E7
E7
E7
E7
C6
ENDCHAR
STARTCHAR 2020
ENCODING 8224
SWIDTH 409 0
DWIDTH 9 0
BBX 8 15 1 0
BITMAP
18
18
18
18
FF
FF
18
18
18
18
18
18
18
18
18
ENDCHAR
STARTCHAR 2021
ENCODING 8225
SWIDTH 409 0
DWIDTH 9 0
BBX 8 15 1 0
BITMAP
18
18
18
18
FF
FF
18
18
18
FF
FF
18
18
18
18
ENDCHAR
STARTCHAR 2022
ENCODING 8226
SWIDTH 363 0
DWIDTH 8 0
BBX 6 7 1 4
BITMAP
7C
FC
FC
FC
FC
FC
78
ENDCHAR
STARTCHAR 2026
ENCODING 8230
SWIDTH 1363 0
DWIDTH 30 0
BBX 27 3 1 0
BITMAP
E00E00E0
E00E00E0
E00E00E0
ENDCHAR
STARTCHAR 2030
ENCODING 8240
SWIDTH 1454 0
DWIDTH 32 0
BBX 30 15 1 0
BITMAP
7F038000
FF870000
C1860000
C18E0000
C19C0000
FF980000
7F300000
00700000
006FE3F8
00DFF7FC
01D8360C
0398360C
0318360C
071FF7FC
0E0FE3F8
ENDCHAR
STARTCHAR 2039
ENCODING 8249
SWIDTH 272 0
DWIDTH 6 0
BBX 6 10 0 2
BITMAP
04
0C
3C
78
E0
E0
78
3C
0C
04
ENDCHAR
STARTCHAR 203A
ENCODING 8250
SWIDTH 272 0
DWIDTH 6 0
BBX 6 10 0 2
BITMAP
80
C0
F0
78
1C
1C
78
F0
C0
80
ENDCHAR
STARTCHAR 2044
ENCODING 8260
SWIDTH 318 0
DWIDTH 7 0
BBX 13 15 -3 0
BITMAP
0038
0070
0060
00E0
01C0
0180
0300
0700
0600
0C00
1C00
3800
3000
7000
E000
ENDCHAR
STARTCHAR 2070
ENCODING 8304
SWIDTH 500 0
DWIDTH 11 0
BBX 9 7 1 8
BITMAP
7F00
FF80
C180
C180
C180
FF80
7F00
ENDCHAR
STARTCHAR 2074
ENCODING 8308
SWIDTH 500 0
DWIDTH 11 0
BBX 9 7 1 8
BITMAP
C180
C180
C180
FF80
FF80
0180
0180
ENDCHAR
STARTCHAR 2075
ENCODING 8309
SWIDTH 500 0
DWIDTH 11 0
BBX 9 7 1 8
BITMAP
F800
F800
FF80
FF80
0180
FF80
FF80
ENDCHAR
STARTCHAR 2076
ENCODING 8310
SWIDTH 500 0
DWIDTH 11 0
BBX 9 7 1 8
BITMAP
7800
F800
FF80
FF80
C180
FF80
7F80
ENDCHAR
STARTCHAR 2077
ENCODING 8311
SWIDTH 500 0
DWIDTH 11 0
BBX 9 7 1 8
BITMAP
FF80
FF80
0300
0600
0C00
1800
3000
ENDCHAR
STARTCHAR 2078
ENCODING 8312
SWIDTH 500 0
DWIDTH 11 0
BBX 9 7 1 8
BITMAP
FF80
FF80
C180
7F00
C180
FF80
FF80
ENDCHAR
STARTCHAR 2079
ENCODING 8313
SWIDTH 500 0
DWIDTH 11 0
BBX 9 7 1 8
BITMAP
FF00
FF80
C180
FF80
FF80
0F80
0F00
ENDCHAR
STARTCHAR 2080
ENCODING 8320
SWIDTH 500 0
DWIDTH 11 0
BBX 9 7 1 0
BITMAP
7F00
FF80
C180
C180
C180
FF80
7F00
ENDCHAR
STARTCHAR 2081
ENCODING 8321
SWIDTH 181 0
DWIDTH 4 0
BBX 2 7 1 0
BITMAP
C0
C0
C0
C0
C0
C0
C0
ENDCHAR
STARTCHAR 2082
ENCODING 8322
SWIDTH 500 0
DWIDTH 11 0
BBX 9 7 1 0
BITMAP
0F00
0F80
FF80
FF80
C000
FF80
FF80
ENDCHAR
STARTCHAR 2083
ENCODING 8323
SWIDTH 500 0
DWIDTH 11 0
BBX 9 7 1 0
BITMAP
0F80
0F80
FF80
FF80
0180
FF80
FF80
ENDCHAR
STARTCHAR 2084
ENCODING 8324
SWIDTH 500 0
DWIDTH 11 0
BBX 9 7 1 0
BITMAP
C180
C180
C180
FF80
FF80
0180
0180
ENDCHAR
STARTCHAR 2085
ENCODING 8325
SWIDTH 500 0
DWIDTH 11 0
BBX 9 7 1 0
BITMAP
F800
F800
FF80
FF80
0180
FF80
FF80
ENDCHAR
STARTCHAR 2086
ENCODING 8326
SWIDTH 500 0
DWIDTH 11 0
BBX 9 7 1 0
BITMAP
7800
F800
FF80
FF80
C180
FF80
7F80
ENDCHAR
STARTCHAR 2087
ENCODING 8327
SWIDTH 500 0
DWIDTH 11 0
BBX 9 7 1 0
BITMAP
FF80
FF80
0300
0600
0C00
1800
3000
ENDCHAR
STARTCHAR 2088
ENCODING 8328
SWIDTH 500 0
DWIDTH 11 0
BBX 9 7 1 0
BITMAP
FF80
FF80
C180
7F00
C180
FF80
FF80
ENDCHAR
STARTCHAR 2089
ENCODING 8329
SWIDTH 500 0
DWIDTH 11 0
BBX 9 7 1 0
BITMAP
FF00
FF80
C180
FF80
FF80
0F80
0F00
ENDCHAR
STARTCHAR 20AC
ENCODING 8364
SWIDTH 818 0
DWIDTH 18 0
BBX 17 15 0 0
BITMAP
0FFF80
1FFF80
3FFF00
380000
380000
FFFE00
FFFC00
380000
FFFC00
FFF800
380000
380000
3FFF80
1FFF80
0FFF80
ENDCHAR
STARTCHAR 2117
ENCODING 8471
SWIDTH 863 0
DWIDTH 19 0
BBX 17 15 1 0
BITMAP
3FFE00
7FFF00
E00380
C00180
CFF180
CC1980
CC1980
CC1980
CFF180
CC0180
CC0180
C00180
E00380
7FFF00
3FFE00
ENDCHAR
STARTCHAR 2122
ENCODING 8482
SWIDTH 1227 0
DWIDTH 27 0
BBX 26 10 0 5
BITMAP
FFD800C0
FFDC01C0
0C1E03C0
0C1F03C0
0C1B06C0
0C1B8EC0
0C19DCC0
0C18F8C0
0C1870C0
0C1870C0
ENDCHAR
STARTCHAR 2153
ENCODING 8531
SWIDTH 863 0
DWIDTH 19 0
BBX 17 15 1 0
BITMAP
603800
607000
606000
60E000
61C000
618000
630000
070000
060F80
0C0F80
1CFF80
38FF80
300180
70FF80
E0FF80
ENDCHAR
STARTCHAR 2154
ENCODING 8532
SWIDTH 1045 0
DWIDTH 23 0
BBX 21 15 1 0
BITMAP
0F01C0
0F8380
FF8300
FF8700
C00E00
FF8C00
FF9800
003800
0030F8
0060F8
00EFF8
01CFF8
018018
038FF8
070FF8
ENDCHAR
STARTCHAR 215B
ENCODING 8539
SWIDTH 909 0
DWIDTH 20 0
BBX 18 15 1 0
BITMAP
603800
607000
606000
60E000
61C000
618000
630000
070000
067FC0
0C7FC0
1C60C0
383F80
3060C0
707FC0
E07FC0
ENDCHAR
STARTCHAR 215C
ENCODING 8540
SWIDTH 1090 0
DWIDTH 24 0
BBX 22 15 1 0
BITMAP
0F8380
0F8700
FF8600
FF8E00
019C00
FF9800
FFB000
007000
0067FC
00C7FC
01C60C
0383F8
03060C
0707FC
0E07FC
ENDCHAR
STARTCHAR 215D
ENCODING 8541
SWIDTH 1090 0
DWIDTH 24 0
BBX 22 15 1 0
BITMAP
F80380
F80700
FF8600
FF8E00
019C00
FF9800
FFB000
007000
0067FC
00C7FC
01C60C
0383F8
03060C
0707FC
0E07FC
ENDCHAR
STARTCHAR 215E
ENCODING 8542
SWIDTH 954 0
DWIDTH 21 0
BBX 18 15 2 0
BITMAP
FF9C00
FFB800
033000
067000
0CE000
18C000
318000
038000
037FC0
067FC0
0E60C0
1C3F80
1860C0
387FC0
707FC0
ENDCHAR
STARTCHAR 2202
ENCODING 8706
SWIDTH 681 0
DWIDTH 15 0
BBX 13 17 1 -1
BITMAP
0780
07E0
07F0
0070
0018
1F18
7FD8
7FF8
F078
E038
E018
E010
E030
F070
7FE0
3FC0
1F80
ENDCHAR
STARTCHAR 220F
ENCODING 8719
SWIDTH 636 0
DWIDTH 14 0
BBX 12 21 1 -5
BITMAP
FFF0
FFF0
FFF0
E070
E070
E070
E070
E070
E070
E070
E070
E070
E070
E070
E070
E070
E070
E070
E070
E070
E070
ENDCHAR
STARTCHAR 2211
ENCODING 8721
SWIDTH 636 0
DWIDTH 14 0
BBX 12 21 1 -5
BITMAP
FFF0
FFF0
FFF0
7000
3800
3800
1C00
0E00
0700
0700
0380
0700
0700
0E00
1C00
3800
3800
7000
FFF0
FFF0
FFF0
ENDCHAR
STARTCHAR 2212
ENCODING 8722
SWIDTH 590 0
DWIDTH 13 0
BBX 11 3 1 6
BITMAP
FFE0
FFE0
FFE0
ENDCHAR
STARTCHAR 221A
ENCODING 8730
SWIDTH 590 0
DWIDTH 13 0
BBX 11 15 1 0
BITMAP
0060
0060
00E0
00C0
00C0
01C0
0180
E180
F380
3300
3300
3B00
1F00
1E00
1E00
ENDCHAR
STARTCHAR 221E
ENCODING 8734
SWIDTH 772 0
DWIDTH 17 0
BBX 15 9 1 3
BITMAP
3C78
7EFC
E38E
C106
C106
C106
E38E
7EFC
3C78
ENDCHAR
STARTCHAR 222B
ENCODING 8747
SWIDTH 409 0
DWIDTH 9 0
BBX 8 24 0 -5
BITMAP
07
0F
1C
18
18
18
18
18
18
18
18
18
18
18
18
18
18
18
18
18
18
38
F0
E0
ENDCHAR
STARTCHAR 2248
ENCODING 8776
SWIDTH 590 0
DWIDTH 13 0
BBX 11 8 1 4
BITMAP
7820
FFE0
FFE0
8380
7820
FFE0
FFE0
8380
ENDCHAR
STARTCHAR 2260
ENCODING 8800
SWIDTH 590 0
DWIDTH 13 0
BBX 13 15 0 0
BITMAP
0038
0070
00E0
7FF0
7FF0
7FF0
0380
0600
7FF0
7FF0
7FF0
3800
3000
7000
E000
ENDCHAR
STARTCHAR 2264
ENCODING 8804
SWIDTH 590 0
DWIDTH 13 0
BBX 11 17 1 -3
BITMAP
0020
00E0
03E0
0F80
3E00
7800
E000
7800
3E00
0F80
03E0
00E0
0020
0000
FFE0
FFE0
FFE0
ENDCHAR
STARTCHAR 2265
ENCODING 8805
SWIDTH 590 0
DWIDTH 13 0
BBX 11 17 1 -3
BITMAP
8000
E000
F800
3E00
0F80
03C0
00E0
03C0
0F80
3E00
F800
E000
8000
0000
FFE0
FFE0
FFE0
ENDCHAR
STARTCHAR 25CA
ENCODING 9674
SWIDTH 545 0
DWIDTH 12 0
BBX 10 15 1 0
BITMAP
0C00
1E00
1E00
3B00
3300
7180
6180
E0C0
6180
7180
3300
3B00
1E00
1E00
0C00
ENDCHAR
STARTCHAR FB01
ENCODING 64257
SWIDTH 681 0
DWIDTH 15 0
BBX 13 16 1 0
BITMAP
7E38
FE38
FE38
E000
FE38
FE38
FE38
E038
E038
E038
E038
E038
E038
E038
E038
E038
ENDCHAR
STARTCHAR FB02
ENCODING 64258
SWIDTH 681 0
DWIDTH 15 0
BBX 13 16 1 0
BITMAP
7E38
FE38
FE38
E038
FE38
FE38
FE38
E038
E038
E038
E038
E038
E038
E038
E038
E038
ENDCHAR
ENDFONT
